<svg viewBox="0 0 1441 400" xmlns="http://www.w3.org/2000/svg"><g><g><g><g><g><line x1="70" y1="343.4120557926633" x2="65" y2="343.4120557926633" style="visibility: inherit;" fill="rgb(0, 0, 0)" stroke="rgb(204, 204, 204)" stroke-width="1px"></line><line x1="70" y1="305.3313293651205" x2="65" y2="305.3313293651205" style="visibility: inherit;" fill="rgb(0, 0, 0)" stroke="rgb(204, 204, 204)" stroke-width="1px"></line><line x1="70" y1="267.25060293757775" x2="65" y2="267.25060293757775" style="visibility: inherit;" fill="rgb(0, 0, 0)" stroke="rgb(204, 204, 204)" stroke-width="1px"></line><line x1="70" y1="229.16987651003492" x2="65" y2="229.16987651003492" style="visibility: inherit;" fill="rgb(0, 0, 0)" stroke="rgb(204, 204, 204)" stroke-width="1px"></line><line x1="70" y1="191.08915008249215" x2="65" y2="191.08915008249215" style="visibility: inherit;" fill="rgb(0, 0, 0)" stroke="rgb(204, 204, 204)" stroke-width="1px"></line><line x1="70" y1="153.00842365494935" x2="65" y2="153.00842365494935" style="visibility: inherit;" fill="rgb(0, 0, 0)" stroke="rgb(204, 204, 204)" stroke-width="1px"></line><line x1="70" y1="114.92769722740658" x2="65" y2="114.92769722740658" style="visibility: inherit;" fill="rgb(0, 0, 0)" stroke="rgb(204, 204, 204)" stroke-width="1px"></line><line x1="70" y1="76.84697079986377" x2="65" y2="76.84697079986377" style="visibility: inherit;" fill="rgb(0, 0, 0)" stroke="rgb(204, 204, 204)" stroke-width="1px"></line><line x1="70" y1="38.766244372321" x2="65" y2="38.766244372321" style="visibility: inherit;" fill="rgb(0, 0, 0)" stroke="rgb(204, 204, 204)" stroke-width="1px"></line><line x1="70" y1="0.685517944778233" x2="65" y2="0.685517944778233" style="visibility: inherit;" fill="rgb(0, 0, 0)" stroke="rgb(204, 204, 204)" stroke-width="1px"></line></g><g transform="translate(60, 0)"><text x="0" y="343.4120557926633" dx="0em" dy="0.3em" style="text-anchor: end; visibility: inherit; font-family: Roboto, sans-serif; font-size: 12px; font-weight: 200;" fill="rgb(33, 33, 33)" stroke="none" stroke-width="1px">200</text><text x="0" y="305.3313293651205" dx="0em" dy="0.3em" style="text-anchor: end; visibility: inherit; font-family: Roboto, sans-serif; font-size: 12px; font-weight: 200;" fill="rgb(33, 33, 33)" stroke="none" stroke-width="1px">300</text><text x="0" y="267.25060293757775" dx="0em" dy="0.3em" style="text-anchor: end; visibility: inherit; font-family: Roboto, sans-serif; font-size: 12px; font-weight: 200;" fill="rgb(33, 33, 33)" stroke="none" stroke-width="1px">400</text><text x="0" y="229.16987651003492" dx="0em" dy="0.3em" style="text-anchor: end; visibility: inherit; font-family: Roboto, sans-serif; font-size: 12px; font-weight: 200;" fill="rgb(33, 33, 33)" stroke="none" stroke-width="1px">500</text><text x="0" y="191.08915008249215" dx="0em" dy="0.3em" style="text-anchor: end; visibility: inherit; font-family: Roboto, sans-serif; font-size: 12px; font-weight: 200;" fill="rgb(33, 33, 33)" stroke="none" stroke-width="1px">600</text><text x="0" y="153.00842365494935" dx="0em" dy="0.3em" style="text-anchor: end; visibility: inherit; font-family: Roboto, sans-serif; font-size: 12px; font-weight: 200;" fill="rgb(33, 33, 33)" stroke="none" stroke-width="1px">700</text><text x="0" y="114.92769722740658" dx="0em" dy="0.3em" style="text-anchor: end; visibility: inherit; font-family: Roboto, sans-serif; font-size: 12px; font-weight: 200;" fill="rgb(33, 33, 33)" stroke="none" stroke-width="1px">800</text><text x="0" y="76.84697079986377" dx="0em" dy="0.3em" style="text-anchor: end; visibility: inherit; font-family: Roboto, sans-serif; font-size: 12px; font-weight: 200;" fill="rgb(33, 33, 33)" stroke="none" stroke-width="1px">900</text><text x="0" y="38.766244372321" dx="0em" dy="0.3em" style="text-anchor: end; visibility: inherit; font-family: Roboto, sans-serif; font-size: 12px; font-weight: 200;" fill="rgb(33, 33, 33)" stroke="none" stroke-width="1px">1e+3</text><text x="0" y="0.685517944778233" dx="0em" dy="0.3em" style="text-anchor: end; visibility: hidden; font-family: Roboto, sans-serif; font-size: 12px; font-weight: 200;" fill="rgb(33, 33, 33)" stroke="none" stroke-width="1px">1.1e+3</text></g><line x1="70" y1="0" x2="70" y2="377" fill="rgb(0, 0, 0)" stroke="rgb(204, 204, 204)" stroke-width="1px"></line></g></g><g transform="translate(70, 0)" clip-path="url(#clip_0)"><clipPath id="clip_0"><rect width="1371" height="377"></rect></clipPath><g><g><g><line x1="28.353268531649928" y1="0" x2="28.353268531649928" y2="377" fill="rgb(0, 0, 0)" stroke="rgb(66, 66, 66)" stroke-width="1px" opacity="0.25"></line><line x1="155.29744078049433" y1="0" x2="155.29744078049433" y2="377" fill="rgb(0, 0, 0)" stroke="rgb(66, 66, 66)" stroke-width="1px" opacity="0.25"></line><line x1="282.24161302933874" y1="0" x2="282.24161302933874" y2="377" fill="rgb(0, 0, 0)" stroke="rgb(66, 66, 66)" stroke-width="1px" opacity="0.25"></line><line x1="409.1857852781832" y1="0" x2="409.1857852781832" y2="377" fill="rgb(0, 0, 0)" stroke="rgb(66, 66, 66)" stroke-width="1px" opacity="0.25"></line><line x1="536.1299575270276" y1="0" x2="536.1299575270276" y2="377" fill="rgb(0, 0, 0)" stroke="rgb(66, 66, 66)" stroke-width="1px" opacity="0.25"></line><line x1="663.074129775872" y1="0" x2="663.074129775872" y2="377" fill="rgb(0, 0, 0)" stroke="rgb(66, 66, 66)" stroke-width="1px" opacity="0.25"></line><line x1="790.0183020247164" y1="0" x2="790.0183020247164" y2="377" fill="rgb(0, 0, 0)" stroke="rgb(66, 66, 66)" stroke-width="1px" opacity="0.25"></line><line x1="916.9624742735607" y1="0" x2="916.9624742735607" y2="377" fill="rgb(0, 0, 0)" stroke="rgb(66, 66, 66)" stroke-width="1px" opacity="0.25"></line><line x1="1043.9066465224053" y1="0" x2="1043.9066465224053" y2="377" fill="rgb(0, 0, 0)" stroke="rgb(66, 66, 66)" stroke-width="1px" opacity="0.25"></line><line x1="1170.8508187712496" y1="0" x2="1170.8508187712496" y2="377" fill="rgb(0, 0, 0)" stroke="rgb(66, 66, 66)" stroke-width="1px" opacity="0.25"></line><line x1="1297.794991020094" y1="0" x2="1297.794991020094" y2="377" fill="rgb(0, 0, 0)" stroke="rgb(66, 66, 66)" stroke-width="1px" opacity="0.25"></line></g><g><line x1="0" y1="343.4120557926633" x2="1371" y2="343.4120557926633" fill="rgb(0, 0, 0)" stroke="rgb(66, 66, 66)" stroke-width="1px" opacity="0.25"></line><line x1="0" y1="305.3313293651205" x2="1371" y2="305.3313293651205" fill="rgb(0, 0, 0)" stroke="rgb(66, 66, 66)" stroke-width="1px" opacity="0.25"></line><line x1="0" y1="267.25060293757775" x2="1371" y2="267.25060293757775" fill="rgb(0, 0, 0)" stroke="rgb(66, 66, 66)" stroke-width="1px" opacity="0.25"></line><line x1="0" y1="229.16987651003492" x2="1371" y2="229.16987651003492" fill="rgb(0, 0, 0)" stroke="rgb(66, 66, 66)" stroke-width="1px" opacity="0.25"></line><line x1="0" y1="191.08915008249215" x2="1371" y2="191.08915008249215" fill="rgb(0, 0, 0)" stroke="rgb(66, 66, 66)" stroke-width="1px" opacity="0.25"></line><line x1="0" y1="153.00842365494935" x2="1371" y2="153.00842365494935" fill="rgb(0, 0, 0)" stroke="rgb(66, 66, 66)" stroke-width="1px" opacity="0.25"></line><line x1="0" y1="114.92769722740658" x2="1371" y2="114.92769722740658" fill="rgb(0, 0, 0)" stroke="rgb(66, 66, 66)" stroke-width="1px" opacity="0.25"></line><line x1="0" y1="76.84697079986377" x2="1371" y2="76.84697079986377" fill="rgb(0, 0, 0)" stroke="rgb(66, 66, 66)" stroke-width="1px" opacity="0.25"></line><line x1="0" y1="38.766244372321" x2="1371" y2="38.766244372321" fill="rgb(0, 0, 0)" stroke="rgb(66, 66, 66)" stroke-width="1px" opacity="0.25"></line><line x1="0" y1="0.685517944778233" x2="1371" y2="0.685517944778233" fill="rgb(0, 0, 0)" stroke="rgb(66, 66, 66)" stroke-width="1px" opacity="0.25"></line></g></g></g><g><g><line x1="0" y1="419.5735086477488" x2="1371" y2="419.5735086477488" fill="rgb(0, 0, 0)" stroke="rgb(153, 153, 153)" stroke-width="1.5px"></line></g></g><g><g><line x1="282.24161302933874" y1="0" x2="282.24161302933874" y2="377" fill="rgb(0, 0, 0)" stroke="rgb(153, 153, 153)" stroke-width="1.5px"></line></g></g><g><g><g><g><g><path stroke="rgb(204, 51, 17)" stroke-width="2px" d="M282.24161302933874,111.36848343344361L284.7804964743156,166.3189001972979L287.3193799192925,196.09429197514763L289.8582633642694,219.7967640599573L292.3971468092463,237.56957341591038L294.93603025422317,252.2832148095514L297.47491369920004,262.22247054015673L300.013797144177,269.78851141645424L302.55268058915385,276.7939115651654L305.0915640341307,284.51807105995346L307.6304474791076,287.6848095922975L310.1693309240845,290.4505506387158L312.7082143690614,294.2747597145488L315.2470978140383,298.5837748402093L317.78598125901516,301.5141882102159L320.32486470399203,304.9408785394518L322.86374814896897,306.7617625845518L325.4026315939459,308.60320743055L327.9415150389227,311.60042453453246L330.48039848389965,313.1919196842022L333.0192819288765,313.7460259487806L335.5581653738534,317.35355582981475L338.09704881883033,316.98606878475414L340.6359322638072,318.97927749994517L343.17481570878414,321.0171819758924L345.71369915376096,321.99097103369417L348.25258259873783,323.9863746979313L350.7914660437147,323.8017520132349L353.33034948869164,324.2047384256891L355.8692329336685,325.52669217442633L358.40811637864545,326.7602889075217L360.9469998236223,328.21032333137305L363.4858832685992,328.0781797271665L366.0247667135761,328.87598913387006L368.56365015855295,330.53554221212147L371.1025336035298,330.39352632932156L373.6414170485067,330.9635219205074L376.1803004934836,331.9845806276876L378.7191839384605,332.09846617806454L381.25806738343744,332.5787684924332L383.7969508284143,333.31939558216845L386.3358342733912,333.6441629328199L388.8747177183681,334.3343005645944L391.41360116334494,334.2957933379797L393.9524846083218,333.75870611129193L396.4913680532987,333.96388485224264L399.0302514982756,334.90111637706167L401.5691349432525,336.5356494755886L404.1080183882294,336.74021886477004L406.6469018332063,338.07574703182775L409.1857852781832,337.5843111269789L411.7246687231601,337.8741737460773L414.2635521681369,338.646863325643L416.8024356131138,338.5486701454203L419.3413190580907,337.7925055264209L421.8802025030676,336.9464757943576L424.4190859480445,338.0311966508691L426.9579693930214,338.7234452087341L429.4968528379983,338.45728554221694L432.03573628297517,338.7793583465821L434.5746197279521,339.4975019835935L437.113503172929,339.8917205913301L439.6523866179058,340.4784903121191L442.1912700628827,339.837206261943L444.7301535078596,340.6312648816681L447.2690369528365,341.68672977094303L449.8079203978134,341.9876809197141L452.3468038427903,340.8263127484462L454.88568728776715,339.6863478454001L457.4245707327441,341.2126617506897L459.96345417772096,342.44827334324583L462.5023376226978,342.4129622211579L465.0412210676747,342.33495893672824L467.5801045126516,342.87322976753813L470.11898795762846,342.4641400396847L472.6578714026054,343.43056859817233L475.19675484758227,343.22511069400963L477.73563829255914,343.42831589037746L480.2745217375361,343.4927111725165L482.81340518251295,344.37019580848926L485.35228862748977,344.0124602108609L487.8911720724667,345.14027137495685L490.4300555174436,345.6407394189004L492.96893896242045,345.64823282411925L495.5078224073974,345.04440646211737L498.04670585237426,346.53920614897584L500.58558929735113,345.76660962199014L503.12447274232807,344.77696637723164L505.66335618730494,344.5347647348513L508.20223963228176,344.374345336406L510.7411230772587,345.7689829578394L513.2800065222356,346.4961277165933L515.8188899672125,346.23849420572174L518.3577734121893,347.5038552289498L520.8966568571662,348.2790162876678L523.4355403021432,347.9085333701103L525.97442374712,347.3024891897054L528.5133071920969,346.5044834772804L531.0521906370737,347.69731795359786L533.5910740820507,348.38991314003425L536.1299575270276,347.876569211877L538.6688409720044,347.6253910874749L541.2077244169814,347.5908322878481L543.7466078619583,348.21537519629834L546.2854913069351,348.23354271388615L548.824374751912,347.912089872751L551.363258196889,348.4063028764532L553.9021416418658,348.7141684340159L556.4410250868426,349.21045058692266L558.9799085318195,349.2296081380908L561.5187919767965,349.8767886232553L564.0576754217733,350.66465633322036L566.5965588667502,350.73135144042334L569.1354423117272,349.6498488098658L571.674325756704,349.78547666986293L574.2132092016809,350.58518083866824L576.7520926466577,350.2890504324131L579.2909760916347,350.16450019431676L581.8298595366116,350.7189317994357L584.3687429815884,350.84408985109684L586.9076264265653,350.3424629578996L589.4465098715423,351.28498384369885L591.9853933165191,351.1948659191599L594.524276761496,350.9939644924023L597.063160206473,350.44293292431144L599.6020436514498,350.3153337156342L602.1409270964266,350.93855867232196L604.6798105414035,352.031627618433L607.2186939863805,352.012286828988L609.7575774313573,353.3721509783798L612.2964608763342,352.5075621763002L614.8353443213111,353.59467712623444L617.3742277662881,352.9733219763357L619.9131112112649,353.33220550048344L622.4519946562417,352.653224258223L624.9908781012186,352.70350150892347L627.5297615461956,352.87177789627316L630.0686449911724,353.4956355197676L632.6075284361493,353.08261062145965L635.1464118811263,353.8794845367299L637.6852953261031,355.18177165839376L640.22417877108,354.65430025296615L642.7630622160569,354.65908402646954L645.3019456610338,353.68818335164593L647.8408291060106,354.22193072542086L650.3797125509875,354.6707922476392L652.9185959959644,354.50457479803373L655.4574794409413,354.0706919969528L657.9963628859182,353.94646883845206L660.5352463308951,353.90555540891404L663.074129775872,354.25915100996826L665.6130132208489,354.9415579270139L668.1518966658257,354.4212154929858L670.6907801108026,354.2747671789256L673.2296635557796,355.2570911836049L675.7685470007564,354.55934122817257L678.3074304457333,354.65386297776536L680.8463138907102,354.5873761382987L683.385197335687,354.97836987138L685.9240807806639,355.0348996675601L688.4629642256408,355.391144025996L691.0018476706177,355.36081280143753L693.5407311155946,355.8943313685997L696.0796145605715,355.7092964664863L698.6184980055484,355.3620908830438L701.1573814505253,356.1936916479036L703.6962648955022,356.0977988062792L706.2351483404791,355.81989739370425L708.774031785456,356.5342149547829L711.3129152304328,356.7115317332907L713.8517986754098,356.7194660160039L716.3906821203867,356.6145074223177L718.9295655653635,357.5084755402772L721.4684490103405,357.2144948288964L724.0073324553174,357.18357970445896L726.5462159002941,357.4058080158321L729.085099345271,356.84145700606706L731.6239827902479,356.4720080775615L734.1628662352248,357.50073415501976L736.7017496802017,357.33374949015365L739.2406331251786,357.6550498565951L741.7795165701555,357.35054469181165L744.3184000151324,357.1059883036538L746.8572834601093,356.8076056013444L749.3961669050861,356.6723046656892L751.9350503500631,357.2481096056947L754.47393379504,357.20550803769527L757.0128172400168,357.06580021239955L759.5517006849938,357.90385263419046L762.0905841299707,358.01131763900867L764.6294675749475,357.23715138609896L767.1683510199244,357.7496532989705L769.7072344649014,357.74512909996986L772.2461179098781,357.823919514263L774.785001354855,357.2599520832677L777.3238847998318,357.4775260581765L779.8627682448088,357.71178138635446L782.4016516897857,357.65493956775595L784.9405351347626,357.6728421874454L787.4794185797394,359.2346342455196L790.0183020247164,358.5426218609368L792.5571854696933,357.74655370786064L795.0960689146701,359.02227645847415L797.6349523596471,359.3045771621344L800.173835804624,358.5099392533207L802.7127192496008,357.93710168741035L805.2516026945777,358.4094060811915L807.7904861395547,358.1831219833441L810.3293695845315,358.05416858827164L812.8682530295084,358.6731876090143L815.4071364744854,359.27543321000667L817.9460199194621,359.2161307884787L820.484903364439,359.5667256475698L823.0237868094159,359.189655283049L825.5626702543927,359.6650778750684L828.1015536993697,359.15288838623354L830.6404371443466,359.15605440470296L833.1793205893234,359.45988276365546L835.7182040343004,359.4984891864242L838.2570874792773,359.5680383585251L840.7959709242541,359.44628384472867L843.334854369231,360.2707127880515L845.873737814208,360.0854534730242L848.4126212591848,360.0145587692115L850.9515047041617,359.7022493788702L853.4903881491387,358.9364522812068L856.0292715941155,358.9514304952105L858.5681550390924,359.4573727629027L861.1070384840693,360.18520213474255L863.6459219290463,359.7971931077823L866.184805374023,359.7413013007832L868.7236888189999,359.5704278349996L871.2625722639767,359.3035527883407L873.8014557089537,359.116066535278L876.3403391539306,359.2390760922671L878.8792225989074,359.4556124984082L881.4181060438843,360.3281968294272L883.9569894888613,360.91422826836003L886.4958729338381,360.4063137235505L889.034756378815,360.26596012485214L891.573639823792,358.8928023035002L894.1125232687688,359.624797212698L896.6514067137457,360.30193361902235L899.1902901587226,360.40457140878743L901.7291736036995,360.5107938795073L904.2680570486764,360.5107751497089L906.8069404936533,361.3269451648887L909.3458239386302,361.057398745269L911.884707383607,360.36495330859645L914.4235908285839,360.3400598643625L916.9624742735607,360.88624971669816L919.5013577185376,360.6400379924001L922.0402411635146,361.0563422055567L924.5791246084914,361.6703111923865L927.1180080534683,361.6829176336626L929.6568914984452,360.6207068726687" style="fill: none;" fill="none"></path></g><g><path stroke="rgb(0, 119, 187)" stroke-width="2px" d="M282.24161302933874,-134.05852118111608L284.7804964743156,52.8762499848372L287.3193799192925,125.42541408330707L289.8582633642694,152.78011223181193L292.3971468092463,172.73787627579202L294.93603025422317,184.09809389990247L297.47491369920004,189.8727011304307L300.013797144177,202.73215153353212L302.55268058915385,206.00963823088776L305.0915640341307,208.1403074365403L307.6304474791076,210.42135313334998L310.1693309240845,210.6665552662069L312.7082143690614,215.95307081482608L315.2470978140383,210.72112668849368L317.78598125901516,206.54638819041557L320.32486470399203,211.5157143585673L322.86374814896897,213.86589143861943" style="fill: none;" fill="none"></path></g><g><path stroke="rgb(255, 112, 67)" stroke-width="2px" d="M282.24161302933874,117.92574094149488L284.7804964743156,141.27999455246365L287.3193799192925,151.75742272613647L289.8582633642694,157.46092028506496L292.3971468092463,160.6239085819911L294.93603025422317,166.53618660956508L297.47491369920004,168.80931299200265L300.013797144177,172.19954086026996L302.55268058915385,175.24547455138122L305.0915640341307,177.59777152100784L307.6304474791076,180.45453362583672L310.1693309240845,181.41539189965695L312.7082143690614,185.37668953917802L315.2470978140383,186.9179459325588L317.78598125901516,187.82059824842364L320.32486470399203,192.9396833940804L322.86374814896897,193.8402454416471L325.4026315939459,194.5722655808308L327.9415150389227,195.7406237371926L330.48039848389965,196.19960053830837L333.0192819288765,198.42258372401326L335.5581653738534,196.83534677395622L338.09704881883033,199.1972852614014L340.6359322638072,201.1635322266257L343.17481570878414,198.88033572644366L345.71369915376096,199.95629468528006L348.25258259873783,198.6449954132054L350.7914660437147,198.6514788907961L353.33034948869164,200.39177078503684L355.8692329336685,202.77011000665047L358.40811637864545,202.5266000210918L360.9469998236223,203.05241067137771L363.4858832685992,202.3295835845797L366.0247667135761,204.49420902584228L368.56365015855295,205.74153436231563L371.1025336035298,211.08739636162505L373.6414170485067,207.16743056489668L376.1803004934836,207.88653711966893L378.7191839384605,207.88086294538255L381.25806738343744,205.78860601297424L383.7969508284143,209.65371500607813L386.3358342733912,212.80830649509562L388.8747177183681,209.9720692228386L391.41360116334494,213.06283648582763L393.9524846083218,211.1367155839316L396.4913680532987,213.3761127293229L399.0302514982756,208.48286993218102L401.5691349432525,210.82849602096493L404.1080183882294,212.7773134089959L406.6469018332063,211.60625685359372L409.1857852781832,211.3349782582656L411.7246687231601,213.73664494206542L414.2635521681369,212.4912523786142L416.8024356131138,213.52694975800665L419.3413190580907,213.36839197869782L421.8802025030676,217.4812984430382L424.4190859480445,217.57436131912573L426.9579693930214,217.73146253897963L429.4968528379983,214.44675607937356L432.03573628297517,207.05764728196274L434.5746197279521,208.3049970894364L437.113503172929,210.0707276303189L439.6523866179058,211.15328772404402L442.1912700628827,207.922550228971L444.7301535078596,208.8598347767665L447.2690369528365,208.78885311112012L449.8079203978134,213.78945015924705L452.3468038427903,209.42918328941508L454.88568728776715,215.98654558340948L457.4245707327441,214.9951057129543L459.96345417772096,210.75781472965528L462.5023376226978,208.4413864029495L465.0412210676747,208.04041967723657L467.5801045126516,211.6875508349973L470.11898795762846,212.9875147716705L472.6578714026054,216.38203808683193L475.19675484758227,215.52518398762888L477.73563829255914,216.899953654153L480.2745217375361,215.1284183470981L482.81340518251295,213.01966244690794L485.35228862748977,210.94995356101202L487.8911720724667,211.3960173807554L490.4300555174436,214.82324031980548L492.96893896242045,219.01641789252088L495.5078224073974,215.44706897888008L498.04670585237426,214.2228462713786L500.58558929735113,215.29434873942853L503.12447274232807,217.6258831357275L505.66335618730494,216.81214250230337L508.20223963228176,214.80954775014195L510.7411230772587,216.68755581646852L513.2800065222356,212.87131315961662L515.8188899672125,216.48045431135796L518.3577734121893,219.24998708771776L520.8966568571662,219.4850740703533L523.4355403021432,221.00722198070235L525.97442374712,220.45338008369276L528.5133071920969,212.44536344556906L531.0521906370737,215.21382074276292L533.5910740820507,216.31797379412882L536.1299575270276,216.62174815705768L538.6688409720044,217.95281234555367L541.2077244169814,215.19319001255423L543.7466078619583,217.27601238329376L546.2854913069351,214.74827624753033L548.824374751912,217.0806421303257L551.363258196889,219.55600023147102L553.9021416418658,218.68327808092613L556.4410250868426,219.76201965436056L558.9799085318195,221.1870002157478L561.5187919767965,219.95423317970528L564.0576754217733,223.58056636091217L566.5965588667502,223.6401944562522L569.1354423117272,224.43605182836924L571.674325756704,220.44827568117782L574.2132092016809,216.99450021989392L576.7520926466577,220.73677418152636L579.2909760916347,217.0936691598121L581.8298595366116,217.78264067459716L584.3687429815884,215.6745886096008L586.9076264265653,217.20906264512138L589.4465098715423,218.4031268907994L591.9853933165191,221.42130641650584L594.524276761496,222.0888115000804L597.063160206473,221.51641520995736L599.6020436514498,221.5063697331716L602.1409270964266,219.56203719075916L604.6798105414035,217.5193950164312L607.2186939863805,213.73841260573073L609.7575774313573,218.1737602622951L612.2964608763342,216.23283497222548L614.8353443213111,219.44722864346653L617.3742277662881,221.5040433069671L619.9131112112649,222.4972826668761L622.4519946562417,222.10059859746602L624.9908781012186,220.33385524372676L627.5297615461956,215.97350439990245L630.0686449911724,217.85526360308148L632.6075284361493,218.28532024401844L635.1464118811263,217.85560478095428L637.6852953261031,215.37128021801482L640.22417877108,218.04280847061617L642.7630622160569,220.49517850133512L645.3019456610338,225.10203607349015L647.8408291060106,224.63529941478654L650.3797125509875,224.94950176317587L652.9185959959644,222.0129538318566L655.4574794409413,224.02245338397992L657.9963628859182,219.63873270246552L660.5352463308951,221.41434551128967L663.074129775872,222.06287985445059L665.6130132208489,220.49921039644417L668.1518966658257,220.15335181804605L670.6907801108026,223.1255168968667L673.2296635557796,223.89367544653697L675.7685470007564,222.0589331129077L678.3074304457333,221.5423981559051L680.8463138907102,222.2081842317811L683.385197335687,221.9453059767019L685.9240807806639,219.1440086730587L688.4629642256408,221.4131108731289L691.0018476706177,221.4233664957101L693.5407311155946,220.4028928634577L696.0796145605715,217.41377076544575L698.6184980055484,222.56242973936864L701.1573814505253,218.61704300241914L703.6962648955022,220.23933417372797L706.2351483404791,221.65856761608495L708.774031785456,222.2714523476625L711.3129152304328,223.32339975434215L713.8517986754098,221.3208992085076L716.3906821203867,223.3425707177619L718.9295655653635,216.74665860584503L721.4684490103405,222.50352231476057L724.0073324553174,220.18866615527676L726.5462159002941,221.7710067173269L729.085099345271,223.20633079270692L731.6239827902479,221.5616628267545L734.1628662352248,223.51871324312054L736.7017496802017,223.09545423018898L739.2406331251786,221.73894279008258L741.7795165701555,221.856991047735L744.3184000151324,222.33979098608066L746.8572834601093,222.5565169792939L749.3961669050861,222.33030812325634L751.9350503500631,221.3913918629717L754.47393379504,220.04423551428945L757.0128172400168,219.8423698357968L759.5517006849938,216.77945852985945L762.0905841299707,214.79941106302067L764.6294675749475,219.1206809985494L767.1683510199244,219.72775527622144L769.7072344649014,215.34307479925474L772.2461179098781,221.11302723464922L774.785001354855,224.6444011916822L777.3238847998318,221.38537352492716L779.8627682448088,222.00198645763288L782.4016516897857,221.62061293155273L784.9405351347626,222.69010358254366L787.4794185797394,223.21553833349552L790.0183020247164,222.88643907975998L792.5571854696933,219.63660848802033L795.0960689146701,218.2181761305914L797.6349523596471,217.55245345474077L800.173835804624,218.69678609497427L802.7127192496008,219.53064169129357L805.2516026945777,219.29950015835922L807.7904861395547,222.16427913420725L810.3293695845315,224.74887408901373L812.8682530295084,227.8192342685826L815.4071364744854,226.4705439597512L817.9460199194621,225.91261515390718L820.484903364439,225.5698856480102L823.0237868094159,227.5232419809824L825.5626702543927,222.738425156139L828.1015536993697,222.4828981549972L830.6404371443466,221.39057966691422L833.1793205893234,221.71163009127767L835.7182040343004,222.67869550963795L838.2570874792773,217.75656729754937L840.7959709242541,219.4865131449053L843.334854369231,222.8787546259248L845.873737814208,223.84368804069086L848.4126212591848,225.83977453670235L850.9515047041617,222.6752680655715L853.4903881491387,219.82478774556546L856.0292715941155,222.92672357806L858.5681550390924,225.33213917067965L861.1070384840693,226.40841527587352L863.6459219290463,226.10375722277936L866.184805374023,222.6993989442244L868.7236888189999,221.36799918485042L871.2625722639767,223.19782650490382L873.8014557089537,226.07383529275202L876.3403391539306,226.24444348047763L878.8792225989074,224.364281707267L881.4181060438843,227.65385106313693L883.9569894888613,231.08203284341946L886.4958729338381,226.5002375764214L889.034756378815,225.24873890588927L891.573639823792,223.45330657494185L894.1125232687688,218.95411830594372L896.6514067137457,220.55190747608583L899.1902901587226,220.55539252263097L901.7291736036995,223.89162500416842L904.2680570486764,219.2022154856142L906.8069404936533,218.88388932829665L909.3458239386302,219.709619278954L911.884707383607,221.92794980272888L914.4235908285839,222.61615921453435L916.9624742735607,221.8313827955154L919.5013577185376,223.24774419483157L922.0402411635146,226.3973542802534L924.5791246084914,227.03270159754027L927.1180080534683,224.21862930820868L929.6568914984452,222.99883174949247" style="fill: none;" fill="none"></path></g></g></g></g><g opacity="0.2"><g><g><g><path stroke="rgb(204, 51, 17)" stroke-width="2px" d="M282.24161302933874,111.36848343344361L284.7804964743156,199.2891502556105L287.3193799192925,224.67866808188327L289.8582633642694,247.67087123169352L292.3971468092463,260.7737533110426L294.93603025422317,272.6374777678587L297.47491369920004,276.4357652630141L300.013797144177,280.8198716480883L302.55268058915385,287.12551605558946L305.0915640341307,295.9875477052696L307.6304474791076,292.4061953053971L310.1693309240845,294.5841111677037L312.7082143690614,299.9985866221502L315.2470978140383,305.03885571949L317.78598125901516,305.9063636743128L320.32486470399203,310.0784972657962L322.86374814896897,309.4923181150988L325.4026315939459,311.3649071569005L327.9415150389227,316.0957935946474L330.48039848389965,315.5790169397462L333.0192819288765,314.5771549571437L335.5581653738534,322.7647319440587L338.09704881883033,316.4348454725537L340.6359322638072,321.9690669612742L343.17481570878414,324.07402420526057L345.71369915376096,323.4516504676312L348.25258259873783,326.97947508859585L350.7914660437147,323.52481826962946L353.33034948869164,324.80921767316295L355.8692329336685,327.50962206690855L358.40811637864545,328.61068359809065L360.9469998236223,330.3853746786418L363.4858832685992,327.879964336632L366.0247667135761,330.0727031867799L368.56365015855295,333.02487175817635L371.1025336035298,330.18050250878366L373.6414170485067,331.81851529846745L376.1803004934836,333.51616867897945L378.7191839384605,332.2692945029956L381.25806738343744,333.2992219623812L383.7969508284143,334.43033621528616L386.3358342733912,334.13131395840634L388.8747177183681,335.36950701175795L391.41360116334494,334.23803249807435L393.9524846083218,332.9530752713998L396.4913680532987,334.2716529636367L399.0302514982756,336.3069636642026L401.5691349432525,338.9874491232873L404.1080183882294,337.04707294853523L406.6469018332063,340.0790392823873L409.1857852781832,336.84715726971143L411.7246687231601,338.30896767472285L414.2635521681369,339.8058976949882L416.8024356131138,338.40138037508655L419.3413190580907,336.65825859792295L421.8802025030676,335.67743119626334L424.4190859480445,339.65827793563574L426.9579693930214,339.7618180455314L429.4968528379983,338.0580460424412L432.03573628297517,339.26246755312974L434.5746197279521,340.5747174391106L437.113503172929,340.48304850293493L439.6523866179058,341.3586448933026L442.1912700628827,338.8752801866788L444.7301535078596,341.82235281125566L447.2690369528365,343.2699271048554L449.8079203978134,342.4391076428707L452.3468038427903,339.08426049154434L454.88568728776715,337.97640049083094L457.4245707327441,343.5021326086239L459.96345417772096,344.30169073208015L462.5023376226978,342.3599955380259L465.0412210676747,342.21795401008376L467.5801045126516,343.68063601375303L470.11898795762846,341.8505054479044L472.6578714026054,344.88021143590385L475.19675484758227,342.9169238377656L477.73563829255914,343.7331236849292L480.2745217375361,343.5893040957251L482.81340518251295,345.6864227624484L485.35228862748977,343.4758568144184L487.8911720724667,346.83198812110066L490.4300555174436,346.39144148481574L492.96893896242045,345.65947293194745L495.5078224073974,344.1386669191146L498.04670585237426,348.78140567926357L500.58558929735113,344.6077148315115L503.12447274232807,343.2925015100939L505.66335618730494,344.1714622712809L508.20223963228176,344.133716238738L510.7411230772587,347.8609393899894L513.2800065222356,347.5868448547243L515.8188899672125,345.8520439394144L518.3577734121893,349.40189676379197L520.8966568571662,349.44175787574466L523.4355403021432,347.35280899377426L525.97442374712,346.39342291909793L528.5133071920969,345.3074749086431L531.0521906370737,349.4865696680739L533.5910740820507,349.42880591968884L536.1299575270276,347.1065533196411L538.6688409720044,347.24862390087173L541.2077244169814,347.53899408840795L543.7466078619583,349.15218955897365L546.2854913069351,348.26079399026787L548.824374751912,347.4299106110483L551.363258196889,349.1476223820065L553.9021416418658,349.17596677036L556.4410250868426,349.9548738162827L558.9799085318195,349.25834446484293L561.5187919767965,350.8475593510021L564.0576754217733,351.84645789816796L566.5965588667502,350.8313941012277L569.1354423117272,348.02759486402937L571.674325756704,349.98891845985867L574.2132092016809,351.78473709187625L576.7520926466577,349.8448548230303L579.2909760916347,349.9776748371723L581.8298595366116,351.55057920711414L584.3687429815884,351.03182692858854L586.9076264265653,349.59002261810383L589.4465098715423,352.6987651723977L591.9853933165191,351.05968903235134L594.524276761496,350.69261235226605L597.063160206473,349.61638557217515L599.6020436514498,350.1239349026184L602.1409270964266,351.87339610735347L604.6798105414035,353.67123103759957L607.2186939863805,351.98327564482065L609.7575774313573,355.4119472024675L612.2964608763342,351.2106789731808L614.8353443213111,355.2253495511357L617.3742277662881,352.04128925148757L619.9131112112649,353.87053078670516L622.4519946562417,351.6347523948322L624.9908781012186,352.7789173849742L627.5297615461956,353.1241924772977L630.0686449911724,354.4314219550093L632.6075284361493,352.46307327399774L635.1464118811263,355.07479540963527L637.6852953261031,357.13520234088963L640.22417877108,353.86309314482475L642.7630622160569,354.6662596867246L645.3019456610338,352.2318323394105L647.8408291060106,355.0225517860833L650.3797125509875,355.3440845309667L652.9185959959644,354.2552486236255L655.4574794409413,353.41986779533136L657.9963628859182,353.760134100701L660.5352463308951,353.844185264607L663.074129775872,354.7895444115495L665.6130132208489,355.96516830258247L668.1518966658257,353.6407018419437L670.6907801108026,354.0550947078352L673.2296635557796,356.7305771906239L675.7685470007564,353.512716295024L678.3074304457333,354.79564560215454L680.8463138907102,354.48764587909875L683.385197335687,355.5648604710019L685.9240807806639,355.1196943618303L688.4629642256408,355.92551056365L691.0018476706177,355.31531596459973L693.5407311155946,356.69460921934296L696.0796145605715,355.4317441133163L698.6184980055484,354.84128250787995L701.1573814505253,357.4410927951934L703.6962648955022,355.9539595438424L706.2351483404791,355.4030452748419L708.774031785456,357.60569129640083L711.3129152304328,356.97750690105244L713.8517986754098,356.7313674400736L716.3906821203867,356.4570695317883L718.9295655653635,358.84942771721643L721.4684490103405,356.77352376182534L724.0073324553174,357.1372070178027L726.5462159002941,357.7391504828919L729.085099345271,355.99493049141944L731.6239827902479,355.9178346848031L734.1628662352248,359.0438232712071L736.7017496802017,357.0832724928546L739.2406331251786,358.13700040625724L741.7795165701555,356.8937869446364L744.3184000151324,356.73915372141715L746.8572834601093,356.3600315478803L749.3961669050861,356.46935326220637L751.9350503500631,358.1118170157029L754.47393379504,357.14160568569605L757.0128172400168,356.85623847445595L759.5517006849938,359.1609312668768L762.0905841299707,358.1725151462361L764.6294675749475,356.0759020067343L767.1683510199244,358.51840616827775L769.7072344649014,357.73834280146895L772.2461179098781,357.9421051357027L774.785001354855,356.41400093677476L777.3238847998318,357.80388702053983L779.8627682448088,358.06316437862137L782.4016516897857,357.5696768398582L784.9405351347626,357.69969611697957L787.4794185797394,361.57732233263084L790.0183020247164,357.50460328406257L792.5571854696933,356.5524514782465L795.0960689146701,360.93586058439445L797.6349523596471,359.72802821762485L800.173835804624,357.3179823901L802.7127192496008,357.07784533854493L805.2516026945777,359.1178626718632L807.7904861395547,357.843695836573L810.3293695845315,357.86073849566293L812.8682530295084,359.6017161401282L815.4071364744854,360.1788016114953L817.9460199194621,359.1271771561868L820.484903364439,360.0926179362064L823.0237868094159,358.6240497362678L825.5626702543927,360.3782117630975L828.1015536993697,358.3846041529813L830.6404371443466,359.16080343240696L833.1793205893234,359.91562530208427L835.7182040343004,359.5563988205774L838.2570874792773,359.67236211667637L840.7959709242541,359.2636520740341L843.334854369231,361.5073562030358L845.873737814208,359.8075645004831L848.4126212591848,359.90821671349244L850.9515047041617,359.23378529335815L853.4903881491387,357.7877566347117L856.0292715941155,358.9738978162161L858.5681550390924,360.2162861644409L861.1070384840693,361.27694619250246L863.6459219290463,359.2151795673418L866.184805374023,359.65746359028475L868.7236888189999,359.314117636324L871.2625722639767,358.9032402183525L873.8014557089537,358.8348371556839L876.3403391539306,359.4235904277508L878.8792225989074,359.78041710761977L881.4181060438843,361.6370733259558L883.9569894888613,361.7932754267592L886.4958729338381,359.64444190633634L889.034756378815,360.0554297268045L891.573639823792,356.8330655714724L894.1125232687688,360.72278957649473L896.6514067137457,361.31763822850894L899.1902901587226,360.558528093435L901.7291736036995,360.670127585587L904.2680570486764,360.5107470550113L906.8069404936533,362.5512001876585L909.3458239386302,360.6530791158393L911.884707383607,359.32628515358766L914.4235908285839,360.3027196980117L916.9624742735607,361.7055344952016L919.5013577185376,360.2707204059529L922.0402411635146,361.6807985252916L924.5791246084914,362.59126467263127L927.1180080534683,361.70182729557683L929.6568914984452,359.02739073117766" style="fill: none;" fill="none"></path></g><g><path stroke="rgb(0, 119, 187)" stroke-width="2px" d="M282.24161302933874,-134.05852118111608L284.7804964743156,165.03711268440915L287.3193799192925,195.07261161783813L289.8582633642694,184.9492372544537L292.3971468092463,198.7947330116123L294.93603025422317,199.81336455239196L297.47491369920004,198.13048186380178L300.013797144177,221.48135367197796L302.55268058915385,210.8432944904712L305.0915640341307,211.30410289022248L307.6304474791076,213.82223276197934L310.1693309240845,211.03302408631353L312.7082143690614,223.8655827472571L315.2470978140383,202.8834604221965L317.78598125901516,200.28918769168925L320.32486470399203,218.96619885697325L322.86374814896897,217.39016254252084" style="fill: none;" fill="none"></path></g><g><path stroke="rgb(255, 112, 67)" stroke-width="2px" d="M282.24161302933874,117.92574094149488L284.7804964743156,155.29254671904474L287.3193799192925,161.81575377286242L289.8582633642694,164.1682334143647L292.3971468092463,164.75350610245792L294.93603025422317,174.71499554178976L297.47491369920004,172.05992008891045L300.013797144177,177.14252563839122L302.55268058915385,179.73763510361L305.0915640341307,181.09065837480543L307.6304474791076,184.71376616104703L310.1693309240845,182.85145036209263L312.7082143690614,191.30570167436557L315.2470978140383,189.22681104090688L317.78598125901516,189.1735156883078L320.32486470399203,200.61470073711024L322.86374814896897,195.19070742532006L325.4026315939459,195.67010992977225L327.9415150389227,197.49298298412972L330.48039848389965,196.88802378768438L333.0192819288765,201.75693658888952L335.5581653738534,194.45454357757862L338.09704881883033,202.7401463602139L340.6359322638072,204.11287938239232L343.17481570878414,195.45555720415416L345.71369915376096,201.57022853506115L348.25258259873783,196.6780498603489L350.7914660437147,198.6612040972286L353.33034948869164,203.00220702334292L355.8692329336685,206.33761752459907L358.40811637864545,202.16133512350427L360.9469998236223,203.841126542188L363.4858832685992,201.2453430406738L366.0247667135761,207.74114703268845L368.56365015855295,207.61252231341962L371.1025336035298,219.1061892227405L373.6414170485067,201.28748193045232L376.1803004934836,208.96519694515192L378.7191839384605,207.87235168398453L381.25806738343744,202.65022062135398L383.7969508284143,215.4513784879838L386.3358342733912,217.54019372482665L388.8747177183681,205.71771331650032L391.41360116334494,217.6989873789727L393.9524846083218,208.24753423158793L396.4913680532987,216.7352084470608L399.0302514982756,201.14300573692594L401.5691349432525,214.34693515400923L404.1080183882294,215.70053949097652L406.6469018332063,209.84967202051428L409.1857852781832,210.92806036527665L411.7246687231601,217.33914496774764L414.2635521681369,210.62316353344286L416.8024356131138,215.0804958270925L419.3413190580907,213.13055530973492L421.8802025030676,223.650658139545L424.4190859480445,217.713955633257L426.9579693930214,217.96711436876038L429.4968528379983,209.51969638996508L432.03573628297517,195.97398408584752L434.5746197279521,210.17602180064677L437.113503172929,212.71932344164253L439.6523866179058,212.77712786463164L442.1912700628827,203.07644398636148L444.7301535078596,210.26576159845973L447.2690369528365,208.68238061265043L449.8079203978134,221.29034573143747L452.3468038427903,202.88878298466713L454.88568728776715,225.82258902440103L457.4245707327441,213.50794590727153L459.96345417772096,204.40187825470687L462.5023376226978,204.96674391289076L465.0412210676747,207.43896958866713L467.5801045126516,217.15824757163824L470.11898795762846,214.93746067668047L472.6578714026054,221.47382305957407L475.19675484758227,214.23990283882438L477.73563829255914,218.96210815393903L480.2745217375361,212.47111538651572L482.81340518251295,209.85652859662272L485.35228862748977,207.84539023216814L487.8911720724667,212.06511311037056L490.4300555174436,219.96407472838052L492.96893896242045,225.30618425159395L495.5078224073974,210.0930456084188L498.04670585237426,212.38651221012645L500.58558929735113,216.90160244150343L503.12447274232807,221.12318473017595L505.66335618730494,215.5915315521672L508.20223963228176,211.8056556218997L510.7411230772587,219.50456791595832L513.2800065222356,207.14694917433872L515.8188899672125,221.89416603896987L518.3577734121893,223.4042862522574L520.8966568571662,219.8377045443067L523.4355403021432,223.29044384622583L525.97442374712,219.62261723817846L528.5133071920969,200.43333848838336L531.0521906370737,219.36650668855378L533.5910740820507,217.97420337117765L536.1299575270276,217.07740970145088L538.6688409720044,219.94940862829765L541.2077244169814,211.05375651305505L543.7466078619583,220.40024593940305L546.2854913069351,210.95667204388525L548.824374751912,220.57919095451877L551.363258196889,223.2690373831889L553.9021416418658,217.3741948551089L556.4410250868426,221.38013201451216L558.9799085318195,223.32447105782862L561.5187919767965,218.10508262564142L564.0576754217733,229.0200661327225L566.5965588667502,223.72963659926225L569.1354423117272,225.62983788654483L571.674325756704,214.46661146039068L574.2132092016809,211.81383702796808L576.7520926466577,226.35018512397502L579.2909760916347,211.6290116272407L581.8298595366116,218.81609794677482L584.3687429815884,212.51251051210625L586.9076264265653,219.5107736984023L589.4465098715423,220.19422325931652L591.9853933165191,225.9485757050654L594.524276761496,223.09006912544223L597.063160206473,220.65782077477292L599.6020436514498,221.49130151799292L602.1409270964266,216.6455383771405L604.6798105414035,214.45543175493927L607.2186939863805,208.06693898967993L609.7575774313573,224.82678174714175L612.2964608763342,213.32144703712103L614.8353443213111,224.268819150328L617.3742277662881,224.58926530221797L619.9131112112649,223.98714170673952L622.4519946562417,221.50557249335088L624.9908781012186,217.68374021311794L627.5297615461956,209.432978134166L630.0686449911724,220.67790240784993L632.6075284361493,218.9304052054239L635.1464118811263,217.2110315863581L637.6852953261031,211.6447933736056L640.22417877108,222.0501008495182L642.7630622160569,224.17373354741352L645.3019456610338,232.01232243172262L647.8408291060106,223.93519442673124L650.3797125509875,225.42080528575988L652.9185959959644,217.60813193487772L655.4574794409413,227.03670271216492L657.9963628859182,213.06315168019395L660.5352463308951,224.07776472452576L663.074129775872,223.03568136919196L665.6130132208489,218.15370620943443L668.1518966658257,219.6345639504488L670.6907801108026,227.5837645150977L673.2296635557796,225.0459132710424L675.7685470007564,219.30681961246373L678.3074304457333,220.76759572040115L680.8463138907102,223.20686334559508L683.385197335687,221.55098859408295L685.9240807806639,214.94206271759393L688.4629642256408,224.8167641732341L691.0018476706177,221.4387499295819L693.5407311155946,218.87218241507907L696.0796145605715,212.9300876184278L698.6184980055484,230.2854182002529L701.1573814505253,212.698962896995L703.6962648955022,222.67277093069123L706.2351483404791,223.78741777962043L708.774031785456,223.1907794450288L711.3129152304328,224.90132086436165L713.8517986754098,218.31714838975574L716.3906821203867,226.37507798164344L718.9295655653635,206.85279043796973L721.4684490103405,231.13881787813384L724.0073324553174,216.71638191605112L726.5462159002941,224.14451756040216L729.085099345271,225.3593169057769L731.6239827902479,219.09466087782593L734.1628662352248,226.45428886766945L736.7017496802017,222.46056571079166L739.2406331251786,219.70417562992304L741.7795165701555,222.0340634342136L744.3184000151324,223.06399089359917L746.8572834601093,222.88160596911374L749.3961669050861,221.99099483920006L751.9350503500631,219.98301747254465L754.47393379504,218.02350099126605L757.0128172400168,219.53957131805788L759.5517006849938,212.18509157095343L762.0905841299707,211.8293398627625L764.6294675749475,225.60258590184247L767.1683510199244,220.6383666927296L769.7072344649014,208.76605408380476L772.2461179098781,229.76795588774095L774.785001354855,229.9414621272317L777.3238847998318,216.49683202479466L779.8627682448088,222.92690585669143L782.4016516897857,221.0485526424325L784.9405351347626,224.29433955903008L787.4794185797394,224.0036904599234L790.0183020247164,222.3927901991567L792.5571854696933,214.76186260041086L795.0960689146701,216.09052759444802L797.6349523596471,216.5538694409648L800.173835804624,220.41328505532456L802.7127192496008,220.7814250857725L805.2516026945777,218.9527878589577L807.7904861395547,226.46144759797934L810.3293695845315,228.62576652122343L812.8682530295084,232.42477453793603L815.4071364744854,224.44750849650416L817.9460199194621,225.0757219451411L820.484903364439,225.0557913891648L823.0237868094159,230.45327648044073L825.5626702543927,215.56119991887377L828.1015536993697,222.09960765328447L830.6404371443466,219.75210193478975L833.1793205893234,222.1932057278229L835.7182040343004,224.12929363717828L838.2570874792773,210.3733749794165L840.7959709242541,222.08143191593928L843.334854369231,227.96711684745407L845.873737814208,225.29108816283986L848.4126212591848,228.83390428071968L850.9515047041617,217.92850835887504L853.4903881491387,215.54906726555643L856.0292715941155,227.57962732680173L858.5681550390924,228.9402625596091L861.1070384840693,228.0228294336643L863.6459219290463,225.64677014313813L866.184805374023,217.59286152639208L868.7236888189999,219.37089954578943L871.2625722639767,225.94256748498393L873.8014557089537,230.38784847452425L876.3403391539306,226.50035576206602L878.8792225989074,221.54403904745104L881.4181060438843,232.58820509694186L883.9569894888613,236.22430551384323L886.4958729338381,219.62754467592424L889.034756378815,223.3714909000911L891.573639823792,220.76015807852076L894.1125232687688,212.2053359024466L896.6514067137457,222.94859123129893L899.1902901587226,220.56062009244872L901.7291736036995,228.89597372647452L904.2680570486764,212.1681012077829L906.8069404936533,218.40640009232033L909.3458239386302,220.94821420493997L911.884707383607,225.25544558839124L914.4235908285839,223.64847333224262L916.9624742735607,220.6542181669871L919.5013577185376,225.37228629380581L922.0402411635146,231.12176940838614L924.5791246084914,227.98572257347044L927.1180080534683,219.99752087421138L929.6568914984452,221.16913541141813" style="fill: none;" fill="none"></path></g></g></g></g></g></g><g transform="translate(70, 377)" clip-path="url(#clip_1)"><clipPath id="clip_1"><rect width="1371" height="23"></rect></clipPath><g><g><line x1="28.353268531649928" y1="0" x2="28.353268531649928" y2="5" style="visibility: inherit;" fill="rgb(0, 0, 0)" stroke="rgb(204, 204, 204)" stroke-width="1px"></line><line x1="155.29744078049433" y1="0" x2="155.29744078049433" y2="5" style="visibility: inherit;" fill="rgb(0, 0, 0)" stroke="rgb(204, 204, 204)" stroke-width="1px"></line><line x1="282.24161302933874" y1="0" x2="282.24161302933874" y2="5" style="visibility: inherit;" fill="rgb(0, 0, 0)" stroke="rgb(204, 204, 204)" stroke-width="1px"></line><line x1="409.1857852781832" y1="0" x2="409.1857852781832" y2="5" style="visibility: inherit;" fill="rgb(0, 0, 0)" stroke="rgb(204, 204, 204)" stroke-width="1px"></line><line x1="536.1299575270276" y1="0" x2="536.1299575270276" y2="5" style="visibility: inherit;" fill="rgb(0, 0, 0)" stroke="rgb(204, 204, 204)" stroke-width="1px"></line><line x1="663.074129775872" y1="0" x2="663.074129775872" y2="5" style="visibility: inherit;" fill="rgb(0, 0, 0)" stroke="rgb(204, 204, 204)" stroke-width="1px"></line><line x1="790.0183020247164" y1="0" x2="790.0183020247164" y2="5" style="visibility: inherit;" fill="rgb(0, 0, 0)" stroke="rgb(204, 204, 204)" stroke-width="1px"></line><line x1="916.9624742735607" y1="0" x2="916.9624742735607" y2="5" style="visibility: inherit;" fill="rgb(0, 0, 0)" stroke="rgb(204, 204, 204)" stroke-width="1px"></line><line x1="1043.9066465224053" y1="0" x2="1043.9066465224053" y2="5" style="visibility: inherit;" fill="rgb(0, 0, 0)" stroke="rgb(204, 204, 204)" stroke-width="1px"></line><line x1="1170.8508187712496" y1="0" x2="1170.8508187712496" y2="5" style="visibility: inherit;" fill="rgb(0, 0, 0)" stroke="rgb(204, 204, 204)" stroke-width="1px"></line><line x1="1297.794991020094" y1="0" x2="1297.794991020094" y2="5" style="visibility: inherit;" fill="rgb(0, 0, 0)" stroke="rgb(204, 204, 204)" stroke-width="1px"></line></g><g transform="translate(0, 8)"><text x="28.353268531649928" y="0" dx="0em" dy="0.95em" style="text-anchor: middle; visibility: inherit; font-family: Roboto, sans-serif; font-size: 12px; font-weight: 200;" fill="rgb(33, 33, 33)" stroke="none" stroke-width="1px">-100</text><text x="155.29744078049433" y="0" dx="0em" dy="0.95em" style="text-anchor: middle; visibility: inherit; font-family: Roboto, sans-serif; font-size: 12px; font-weight: 200;" fill="rgb(33, 33, 33)" stroke="none" stroke-width="1px">-50</text><text x="282.24161302933874" y="0" dx="0em" dy="0.95em" style="text-anchor: middle; visibility: inherit; font-family: Roboto, sans-serif; font-size: 12px; font-weight: 200;" fill="rgb(33, 33, 33)" stroke="none" stroke-width="1px">0</text><text x="409.1857852781832" y="0" dx="0em" dy="0.95em" style="text-anchor: middle; visibility: inherit; font-family: Roboto, sans-serif; font-size: 12px; font-weight: 200;" fill="rgb(33, 33, 33)" stroke="none" stroke-width="1px">50</text><text x="536.1299575270276" y="0" dx="0em" dy="0.95em" style="text-anchor: middle; visibility: inherit; font-family: Roboto, sans-serif; font-size: 12px; font-weight: 200;" fill="rgb(33, 33, 33)" stroke="none" stroke-width="1px">100</text><text x="663.074129775872" y="0" dx="0em" dy="0.95em" style="text-anchor: middle; visibility: inherit; font-family: Roboto, sans-serif; font-size: 12px; font-weight: 200;" fill="rgb(33, 33, 33)" stroke="none" stroke-width="1px">150</text><text x="790.0183020247164" y="0" dx="0em" dy="0.95em" style="text-anchor: middle; visibility: inherit; font-family: Roboto, sans-serif; font-size: 12px; font-weight: 200;" fill="rgb(33, 33, 33)" stroke="none" stroke-width="1px">200</text><text x="916.9624742735607" y="0" dx="0em" dy="0.95em" style="text-anchor: middle; visibility: inherit; font-family: Roboto, sans-serif; font-size: 12px; font-weight: 200;" fill="rgb(33, 33, 33)" stroke="none" stroke-width="1px">250</text><text x="1043.9066465224053" y="0" dx="0em" dy="0.95em" style="text-anchor: middle; visibility: inherit; font-family: Roboto, sans-serif; font-size: 12px; font-weight: 200;" fill="rgb(33, 33, 33)" stroke="none" stroke-width="1px">300</text><text x="1170.8508187712496" y="0" dx="0em" dy="0.95em" style="text-anchor: middle; visibility: inherit; font-family: Roboto, sans-serif; font-size: 12px; font-weight: 200;" fill="rgb(33, 33, 33)" stroke="none" stroke-width="1px">350</text><text x="1297.794991020094" y="0" dx="0em" dy="0.95em" style="text-anchor: middle; visibility: inherit; font-family: Roboto, sans-serif; font-size: 12px; font-weight: 200;" fill="rgb(33, 33, 33)" stroke="none" stroke-width="1px">400</text></g><line x1="0" y1="0" x2="1371" y2="0" fill="rgb(0, 0, 0)" stroke="rgb(204, 204, 204)" stroke-width="1px"></line></g></g></g></g></svg>