<svg viewBox="0 0 1441 400" xmlns="http://www.w3.org/2000/svg"><g><g><g><g><g><line x1="70" y1="324.8608466025951" x2="65" y2="324.8608466025951" style="visibility: inherit;" fill="rgb(0, 0, 0)" stroke="rgb(204, 204, 204)" stroke-width="1px"></line><line x1="70" y1="272.3602110530472" x2="65" y2="272.3602110530472" style="visibility: inherit;" fill="rgb(0, 0, 0)" stroke="rgb(204, 204, 204)" stroke-width="1px"></line><line x1="70" y1="219.8595755034992" x2="65" y2="219.8595755034992" style="visibility: inherit;" fill="rgb(0, 0, 0)" stroke="rgb(204, 204, 204)" stroke-width="1px"></line><line x1="70" y1="167.35893995395128" x2="65" y2="167.35893995395128" style="visibility: inherit;" fill="rgb(0, 0, 0)" stroke="rgb(204, 204, 204)" stroke-width="1px"></line><line x1="70" y1="114.85830440440333" x2="65" y2="114.85830440440333" style="visibility: inherit;" fill="rgb(0, 0, 0)" stroke="rgb(204, 204, 204)" stroke-width="1px"></line><line x1="70" y1="62.35766885485539" x2="65" y2="62.35766885485539" style="visibility: inherit;" fill="rgb(0, 0, 0)" stroke="rgb(204, 204, 204)" stroke-width="1px"></line><line x1="70" y1="9.857033305307448" x2="65" y2="9.857033305307448" style="visibility: inherit;" fill="rgb(0, 0, 0)" stroke="rgb(204, 204, 204)" stroke-width="1px"></line></g><g transform="translate(60, 0)"><text x="0" y="324.8608466025951" dx="0em" dy="0.3em" style="text-anchor: end; visibility: inherit; font-family: Roboto, sans-serif; font-size: 12px; font-weight: 200;" fill="rgb(33, 33, 33)" stroke="none" stroke-width="1px">200</text><text x="0" y="272.3602110530472" dx="0em" dy="0.3em" style="text-anchor: end; visibility: inherit; font-family: Roboto, sans-serif; font-size: 12px; font-weight: 200;" fill="rgb(33, 33, 33)" stroke="none" stroke-width="1px">400</text><text x="0" y="219.8595755034992" dx="0em" dy="0.3em" style="text-anchor: end; visibility: inherit; font-family: Roboto, sans-serif; font-size: 12px; font-weight: 200;" fill="rgb(33, 33, 33)" stroke="none" stroke-width="1px">600</text><text x="0" y="167.35893995395128" dx="0em" dy="0.3em" style="text-anchor: end; visibility: inherit; font-family: Roboto, sans-serif; font-size: 12px; font-weight: 200;" fill="rgb(33, 33, 33)" stroke="none" stroke-width="1px">800</text><text x="0" y="114.85830440440333" dx="0em" dy="0.3em" style="text-anchor: end; visibility: inherit; font-family: Roboto, sans-serif; font-size: 12px; font-weight: 200;" fill="rgb(33, 33, 33)" stroke="none" stroke-width="1px">1e+3</text><text x="0" y="62.35766885485539" dx="0em" dy="0.3em" style="text-anchor: end; visibility: inherit; font-family: Roboto, sans-serif; font-size: 12px; font-weight: 200;" fill="rgb(33, 33, 33)" stroke="none" stroke-width="1px">1.2e+3</text><text x="0" y="9.857033305307448" dx="0em" dy="0.3em" style="text-anchor: end; visibility: inherit; font-family: Roboto, sans-serif; font-size: 12px; font-weight: 200;" fill="rgb(33, 33, 33)" stroke="none" stroke-width="1px">1.4e+3</text></g><line x1="70" y1="0" x2="70" y2="377" fill="rgb(0, 0, 0)" stroke="rgb(204, 204, 204)" stroke-width="1px"></line></g></g><g transform="translate(70, 0)" clip-path="url(#clip_0)"><clipPath id="clip_0"><rect width="1371" height="377"></rect></clipPath><g><g><g><line x1="42.128874282060806" y1="0" x2="42.128874282060806" y2="377" fill="rgb(0, 0, 0)" stroke="rgb(66, 66, 66)" stroke-width="1px" opacity="0.25"></line><line x1="135.66641481742354" y1="0" x2="135.66641481742354" y2="377" fill="rgb(0, 0, 0)" stroke="rgb(66, 66, 66)" stroke-width="1px" opacity="0.25"></line><line x1="229.20395535278624" y1="0" x2="229.20395535278624" y2="377" fill="rgb(0, 0, 0)" stroke="rgb(66, 66, 66)" stroke-width="1px" opacity="0.25"></line><line x1="322.74149588814896" y1="0" x2="322.74149588814896" y2="377" fill="rgb(0, 0, 0)" stroke="rgb(66, 66, 66)" stroke-width="1px" opacity="0.25"></line><line x1="416.2790364235117" y1="0" x2="416.2790364235117" y2="377" fill="rgb(0, 0, 0)" stroke="rgb(66, 66, 66)" stroke-width="1px" opacity="0.25"></line><line x1="509.8165769588744" y1="0" x2="509.8165769588744" y2="377" fill="rgb(0, 0, 0)" stroke="rgb(66, 66, 66)" stroke-width="1px" opacity="0.25"></line><line x1="603.3541174942371" y1="0" x2="603.3541174942371" y2="377" fill="rgb(0, 0, 0)" stroke="rgb(66, 66, 66)" stroke-width="1px" opacity="0.25"></line><line x1="696.8916580295999" y1="0" x2="696.8916580295999" y2="377" fill="rgb(0, 0, 0)" stroke="rgb(66, 66, 66)" stroke-width="1px" opacity="0.25"></line><line x1="790.4291985649626" y1="0" x2="790.4291985649626" y2="377" fill="rgb(0, 0, 0)" stroke="rgb(66, 66, 66)" stroke-width="1px" opacity="0.25"></line><line x1="883.9667391003252" y1="0" x2="883.9667391003252" y2="377" fill="rgb(0, 0, 0)" stroke="rgb(66, 66, 66)" stroke-width="1px" opacity="0.25"></line><line x1="977.5042796356881" y1="0" x2="977.5042796356881" y2="377" fill="rgb(0, 0, 0)" stroke="rgb(66, 66, 66)" stroke-width="1px" opacity="0.25"></line><line x1="1071.0418201710509" y1="0" x2="1071.0418201710509" y2="377" fill="rgb(0, 0, 0)" stroke="rgb(66, 66, 66)" stroke-width="1px" opacity="0.25"></line><line x1="1164.5793607064134" y1="0" x2="1164.5793607064134" y2="377" fill="rgb(0, 0, 0)" stroke="rgb(66, 66, 66)" stroke-width="1px" opacity="0.25"></line><line x1="1258.116901241776" y1="0" x2="1258.116901241776" y2="377" fill="rgb(0, 0, 0)" stroke="rgb(66, 66, 66)" stroke-width="1px" opacity="0.25"></line><line x1="1351.6544417771388" y1="0" x2="1351.6544417771388" y2="377" fill="rgb(0, 0, 0)" stroke="rgb(66, 66, 66)" stroke-width="1px" opacity="0.25"></line></g><g><line x1="0" y1="324.8608466025951" x2="1371" y2="324.8608466025951" fill="rgb(0, 0, 0)" stroke="rgb(66, 66, 66)" stroke-width="1px" opacity="0.25"></line><line x1="0" y1="272.3602110530472" x2="1371" y2="272.3602110530472" fill="rgb(0, 0, 0)" stroke="rgb(66, 66, 66)" stroke-width="1px" opacity="0.25"></line><line x1="0" y1="219.8595755034992" x2="1371" y2="219.8595755034992" fill="rgb(0, 0, 0)" stroke="rgb(66, 66, 66)" stroke-width="1px" opacity="0.25"></line><line x1="0" y1="167.35893995395128" x2="1371" y2="167.35893995395128" fill="rgb(0, 0, 0)" stroke="rgb(66, 66, 66)" stroke-width="1px" opacity="0.25"></line><line x1="0" y1="114.85830440440333" x2="1371" y2="114.85830440440333" fill="rgb(0, 0, 0)" stroke="rgb(66, 66, 66)" stroke-width="1px" opacity="0.25"></line><line x1="0" y1="62.35766885485539" x2="1371" y2="62.35766885485539" fill="rgb(0, 0, 0)" stroke="rgb(66, 66, 66)" stroke-width="1px" opacity="0.25"></line><line x1="0" y1="9.857033305307448" x2="1371" y2="9.857033305307448" fill="rgb(0, 0, 0)" stroke="rgb(66, 66, 66)" stroke-width="1px" opacity="0.25"></line></g></g></g><g><g><line x1="0" y1="377.361482152143" x2="1371" y2="377.361482152143" fill="rgb(0, 0, 0)" stroke="rgb(153, 153, 153)" stroke-width="1.5px"></line></g></g><g><g><line x1="42.128874282060806" y1="0" x2="42.128874282060806" y2="377" fill="rgb(0, 0, 0)" stroke="rgb(153, 153, 153)" stroke-width="1.5px"></line></g></g><g><g><g><g><g><path stroke="rgb(51, 187, 238)" stroke-width="2px" d="M42.128874282060806,104.06289326337249L46.805751308828945,192.00048581223544L51.48262833559708,224.73855302328127L56.15950536236522,245.58732225499313L60.836382389133355,256.3644611687014L65.51325941590149,264.5748466245661L70.19013644266963,271.3171218310731L74.86701346943777,273.58212353569786L79.5438904962059,275.06360388989526L84.22076752297404,277.4625188414903L88.89764454974217,279.0838045715969L93.5745215765103,281.8876357077615L98.25139860327845,281.2285793563796L102.92827563004657,284.7275953114957L107.60515265681472,287.31978604306084L112.28202968358286,288.5021407973571L116.958906710351,289.4518860150232L121.63578373711913,291.1924778763909L126.31266076388727,293.0500255509109L130.9895377906554,293.8346273295692L135.66641481742354,296.1848836212935L140.34329184419167,298.6505530563987L145.0201688709598,301.46660580709994L149.69704589772795,301.9005710850952L154.37392292449607,303.3154407848202L159.05079995126422,303.0751428255122L163.72767697803235,304.84090231268834L168.4045540048005,305.9042770146671L173.08143103156863,306.9990668453828L177.75830805833678,306.8345476609988L182.4351850851049,307.924656196881L187.11206211187303,309.7118160124348L191.78893913864118,311.0460949194095L196.4658161654093,312.8750260286909L201.14269319217743,313.09507142227903L205.8195702189456,313.3224466902012L210.4964472457137,314.10629729449767L215.17332427248184,314.9679152675516L219.85020129925,316.4533352568179L224.5270783260181,315.5558770427177L229.20395535278624,317.15422090388785L233.8808323795544,317.5816001180764L238.55770940632252,317.5213949605467L243.23458643309064,318.8822656221156L247.9114634598588,318.74149130848156L252.58834048662692,318.0608131028615L257.26521751339504,319.7587309054311L261.94209454016317,319.35351975139184L266.61897156693135,321.23191957164204L271.2958485936995,321.2540887272767L275.97272562046766,321.68481148746594L280.6496026472358,322.28000858903636L285.3264796740039,322.51215358105117L290.00335670077203,321.8341956213701L294.68023372754016,322.10221718800534L299.3571107543083,322.73202435941545L304.03398778107646,323.0395618662649L308.7108648078446,323.3856918236042L313.3877418346127,323.88881641611624L318.06461886138084,323.78382484698545L322.74149588814896,324.9564073120194L327.4183729149171,325.01676291753756L332.09524994168527,324.80186538871567L336.7721269684534,325.52469667958144L341.4490039952215,326.1360322854022L346.12588102198964,326.37184050086296L350.8027580487578,324.9300264780657L355.4796350755259,325.68942894395303L360.1565121022941,325.60084342968514L364.8333891290622,326.72316492705755L369.5102661558304,327.74505808651077L374.18714318259845,327.3428452087638L378.86402020936663,328.37403289282196L383.54089723613475,327.76021137883924L388.2177742629029,326.4680525269611L392.894651289671,327.6374251470539L397.5715283164392,327.48992161666524" style="fill: none;" fill="none"></path></g><g><path stroke="rgb(204, 51, 17)" stroke-width="2px" d="M42.128874282060806,164.90545490035967L46.805751308828945,205.30989146738605L51.48262833559708,226.85506958117696L56.15950536236522,243.9260977687212L60.836382389133355,256.2974032211301L65.51325941590149,266.34243724627856L70.19013644266963,272.5657636135127L74.86701346943777,277.1578002495007L79.5438904962059,281.61793787537107L84.22076752297404,286.89890000962646L88.89764454974217,288.30053531203527L93.5745215765103,289.7516779599569L98.25139860327845,292.3434008424805L102.92827563004657,295.3763440206112L107.60515265681472,297.19168701052166L112.28202968358286,299.537334477388L116.958906710351,300.5080933830379L121.63578373711913,301.6388888570209L126.31266076388727,303.8348655569948L130.9895377906554,304.7547348836459L135.66641481742354,304.8693602458202L140.34329184419167,307.74865882364793L145.0201688709598,307.00660616037084L149.69704589772795,308.54304195006677L154.37392292449607,310.0367684966176L159.05079995126422,310.56912022157985L163.72767697803235,312.0512198108188L168.4045540048005,311.6015643750404L173.08143103156863,311.8194263825576L177.75830805833678,312.85909689878235L182.4351850851049,313.7584314174492L187.11206211187303,314.8197756217076L191.78893913864118,314.48691617092817L196.4658161654093,315.0762505422208L201.14269319217743,316.3884319718719L205.8195702189456,316.06416328086146L210.4964472457137,316.4665974229183L215.17332427248184,317.25293910803003L219.85020129925,317.21635392417136L224.5270783260181,317.5530430464867L229.20395535278624,318.1112450416251L233.8808323795544,318.28728302016583L238.55770940632252,318.8020659418265L243.23458643309064,318.6694757987769L247.9114634598588,318.16029874085694L252.58834048662692,318.36018005371847L257.26521751339504,319.16162456357375L261.94209454016317,320.48622093662675L266.61897156693135,320.47973604089293L271.2958485936995,321.521511469687L275.97272562046766,320.92847702710077L280.6496026472358,321.1357971962397L285.3264796740039,321.7553992336672L290.00335670077203,321.58110988139316L294.68023372754016,320.8931691482569L299.3571107543083,320.2111402230533L304.03398778107646,321.2421911295304L308.7108648078446,321.79340341233046L313.3877418346127,321.481776054102L318.06461886138084,321.7410863807037L322.74149588814896,322.3230304016298L327.4183729149171,322.58240718098216L332.09524994168527,323.0138845023024L336.7721269684534,322.37369000707105L341.4490039952215,323.06935060020555L346.12588102198964,323.9161115734484L350.8027580487578,324.05313624524496L355.4796350755259,322.96534443374634L360.1565121022941,322.0396060607318L364.8333891290622,323.4812728119296L369.5102661558304,324.4776872594923L374.18714318259845,324.3066567789634L378.86402020936663,324.1721845518517L383.54089723613475,324.6090862397741L388.2177742629029,324.19675199335296L392.894651289671,325.03482368082325L397.5715283164392,324.77717963726076L402.24840534320725,324.9296745356876L406.92528236997543,324.95635215951927L411.60215939674356,325.69249797352376L416.2790364235117,325.2986623766494L420.9559134502798,326.25849133121744L425.632790477048,326.58656404651344L430.30966750381606,326.49831520746886L434.98654453058424,325.9300195751598L439.66342155735236,327.2460692766533L444.3402985841205,326.46556181295455L449.0171756108886,325.6219978259224L453.6940526376568,325.5031643506892L458.370929664425,325.43073781202696L463.04780669119305,326.6791743027787L467.7246837179612,327.20892128505074L472.4015607447293,326.8758666433096L477.0784377714975,327.93285543459746L481.7553147982656,328.4750886287594L486.4321918250338,328.02621407662576L491.10906885180185,327.4711083536628L495.78594587857003,326.81926535862044L500.46282290533816,327.9337387240319L505.1396999321063,328.47106616532835L509.8165769588744,327.9393267106257L514.4934539856425,327.7224239838232L519.1703310124107,327.7140535591305L523.8472080391789,328.2658831304799L528.5240850659469,328.23456353361104L533.2009620927151,327.9325258902084L537.8778391194832,328.37354514213615L542.5547161462514,328.60382413532614L547.2315931730195,328.98742696482765L551.9084701997876,328.939157896029L556.5853472265558,329.46277283607117L561.2622242533239,330.0688673870879L565.939101280092,330.02205595806174L570.6159783068601,329.0322739705912L575.2928553336283,329.21338593792916L579.9697323603965,329.9229008304574L584.6466093871645,329.60904542738757L589.3234864139328,329.4978963638299L594.0003634407009,329.984449614446L598.677240467469,330.0489295959506L603.3541174942371,329.58422763115385L608.0309945210053,330.4233567331159L612.7078715477734,330.27798629506594L617.3847485745415,330.0787819625167L622.0616256013097,329.6082402472177L626.7385026280778,329.5479047500563L631.415379654846,330.12071804815184L636.0922566816141,331.026778556946L640.7691337083822,330.89802677083503L645.4460107351504,332.0153998407991L650.1228877619185,331.1260490558303L654.7997647886866,332.06509698376203L659.4766418154547,331.4371813434855L664.1535188422229,331.75370219446245L668.8303958689911,331.1413642258748L673.5072728957591,331.2295508302951L678.1841499225274,331.39264896439124L682.8610269492954,331.9247565214378L687.5379039760635,331.51238602585454L692.2147810028317,332.2063744673746L696.8916580295999,333.26352237695255L701.568535056368,332.6643092036008L706.2454120831361,332.64152739062047L710.9222891099042,331.7910704071191L715.5991661366724,332.3277100198909L720.2760431634406,332.7068514612612L724.9529201902087,332.52113668645194L729.6297972169767,332.14035133308005L734.306674243745,332.06723712613393L738.9835512705131,332.05964966122684L743.6604282972813,332.38168976056414L748.3373053240493,332.94790823497857L753.0141823508175,332.4298512527772L757.6910593775856,332.313650189535L762.3679364043538,333.17769941663335L767.0448134311218,332.5006344855642L771.72169045789,332.604285050057L776.3985674846582,332.5499530794981L781.0754445114263,332.8940671090955L785.7523215381943,332.9126901833607L790.4291985649626,333.19973974376967L795.1060755917307,333.132950755932L799.7829526184989,333.5749527373207L804.459829645267,333.3606861602738L809.1367066720351,333.0500404097967L813.8135836988033,333.7907856062368L818.4904607255714,333.6485928717593L823.1673377523394,333.3876146931082L827.8442147791076,334.0163043726184L832.5210918058758,334.11413496033543L837.1979688326439,334.0782141747156L841.874845859412,333.965712422891L846.5517228861802,334.73402778415465L851.2285999129483,334.4026904675651L855.9054769397166,334.36237132245435L860.5823539664847,334.5496816267027L865.2592309932527,334.04216220390924L869.9361080200209,333.76183013409604L874.612985046789,334.69908831678623L879.2898620735572,334.4919808115191L883.9667391003252,334.7516119974345L888.6436161270934,334.4529332903751L893.3204931538615,334.2502970117491L897.9973701806298,334.0183080782518L902.6742472073978,333.93999316767184L907.3511242341659,334.4669382990127L912.0280012609342,334.39601131259184L916.7048782877023,334.2621912400787L921.3817553144703,334.98963209796L926.0586323412385,335.012678389422L930.7355093680067,334.30156877147124L935.4123863947748,334.78786384853623L940.0892634215429,334.7621495088407L944.766140448311,334.8195224333997L949.4430174750792,334.3215222410647L954.1198945018474,334.55156961578757L958.7967715286154,334.75595757846554L963.4736485553835,334.6880628308635L968.1505255821518,334.69892877421086L972.8274026089199,336.04085043611894L977.5042796356881,335.30808057097255L982.1811566624561,334.6135206031875L986.8580336892243,335.77705583696377L991.5349107159924,335.94252383957473L996.2117877427606,335.1945952622045L1000.8886647695286,334.73786372477986L1005.5655417962968,335.21262402914215L1010.242418823065,335.01084128368154L1014.9192958498331,334.9158239482768L1019.5961728766011,335.46837232639973L1024.2730499033694,335.9435486692242L1028.9499269301375,335.8186768940792L1033.6268039569056,336.08899630880467L1038.3036809836738,335.7179894387562L1042.9805580104419,336.1370872673179L1047.65743503721,335.6595059953701L1052.3343120639781,335.68824541531893L1057.0111890907463,335.9627770996201L1061.6880661175144,335.97622953040354L1066.3649431442825,336.0229244341368L1071.0418201710509,335.90540313816706L1075.7186971978188,336.6199726220394L1080.3955742245869,336.39139574145867L1085.0724512513552,336.31179876879634L1089.7493282781234,336.0395462203099L1094.4262053048913,335.4050219983131L1099.1030823316596,335.49658327201934L1103.7799593584277,335.97057381976566L1108.4568363851959,336.57314330137615L1113.133713411964,336.16380571213114L1117.810590438732,336.11157749884904L1122.4874674655002,335.9671234701046L1127.1643444922684,335.7532806857607L1131.8412215190365,335.6227830346743L1136.5180985458046,335.7604578654339L1141.1949755725727,335.95228156043345L1145.8718525993409,336.6881210078251L1150.5487296261092,337.10987839650056L1155.225606652877,336.5801257000018L1159.9024836796452,336.45690317378995L1164.5793607064134,335.28465024232645L1169.2562377331817,336.03918217215187L1173.9331147599496,336.62147266795137L1178.6099917867177,336.65097791917646L1183.286868813486,336.7041951751587L1187.9637458402542,336.67587063922133L1192.640622867022,337.3649846498503L1197.3174998937905,337.0553225004298L1201.9943769205586,336.4431897091015L1206.6712539473267,336.4736678003993L1211.3481309740948,336.97241041412565L1216.025008000863,336.72724906203115L1220.701885027631,337.0906753794472L1225.3787620543992,337.5861959143921L1230.0556390811673,337.527396722805L1234.7325161079355,336.5762078615476" style="fill: none;" fill="none"></path></g><g><path stroke="rgb(0, 119, 187)" stroke-width="2px" d="M42.128874282060806,-4.275584066990321L46.805751308828945,133.17549544355896L51.48262833559708,184.27836016605946L56.15950536236522,200.99770318805503L60.836382389133355,213.47439388641027L65.51325941590149,219.77233638996657L70.19013644266963,222.2623216517658L74.86701346943777,231.57249742838383L79.5438904962059,232.52649580724486L84.22076752297404,233.1610767439824L88.89764454974217,234.3462417494141L93.5745215765103,233.9768079724442L98.25139860327845,238.21565455540656L102.92827563004657,233.1024091436809L107.60515265681472,229.6518337621824L112.28202968358286,234.36406736432264L116.958906710351,236.1769188339519" style="fill: none;" fill="none"></path></g><g><path stroke="rgb(255, 112, 67)" stroke-width="2px" d="M42.128874282060806,169.42559171142827L46.805751308828945,186.5977173142195L51.48262833559708,194.0735615976742L56.15950536236522,197.92877550352222L60.836382389133355,199.87807108924244L65.51325941590149,204.29419924022312L70.19013644266963,205.52778254819276L74.86701346943777,207.89599261216637L79.5438904962059,209.96934419316634L84.22076752297404,211.4697778224475L88.89764454974217,213.46826985529066L93.5745215765103,213.82474880756598L98.25139860327845,216.91717777512935L102.92827563004657,217.74654097971325L107.60515265681472,218.14281492090157L112.28202968358286,222.2843986616451L116.958906710351,222.48565891431875L121.63578373711913,222.75152260578386L126.31266076388727,223.51273855696795L130.9895377906554,223.68483594575667L135.66641481742354,225.44903749868857L140.34329184419167,223.81424523238633L145.0201688709598,225.85262122592192L149.69704589772795,227.3449444501447L154.37392292449607,225.10721510965772L159.05079995126422,226.09587420253385L163.72767697803235,224.90403257173804L168.4045540048005,224.9916390219596L173.08143103156863,226.53164146850804L177.75830805833678,228.45124767176574L182.4351850851049,227.97162523476027L187.11206211187303,228.31078220693414L191.78893913864118,227.58568052021292L196.4658161654093,229.46201710107493L201.14269319217743,230.35585273194843L205.8195702189456,234.7642549658095L210.4964472457137,230.8269407724254L215.17332427248184,231.50453648955335L219.85020129925,231.4666669618073L224.5270783260181,229.64783743861923L229.20395535278624,233.1505557087271L233.8808323795544,235.62185992996737L238.55770940632252,232.7826965536092L243.23458643309064,235.49266123956545L247.9114634598588,233.5900422730684L252.58834048662692,235.56415158072525L257.26521751339504,231.17709294487526L261.94209454016317,233.5345186058899L266.61897156693135,235.17977379679976L271.2958485936995,233.98580212057385L275.97272562046766,233.76050085088013L280.6496026472358,235.8575376863608L285.3264796740039,234.59128084429318L290.00335670077203,235.49444650313592L294.68023372754016,235.27394973974884L299.3571107543083,238.78963064319203L304.03398778107646,238.501287343392L308.7108648078446,238.44437108326338L313.3877418346127,235.50436914715266L318.06461886138084,229.36561201519743L322.74149588814896,231.191203136473L327.4183729149171,232.98059011928697L332.09524994168527,233.8952068712853L336.7721269684534,231.00901240048694L341.4490039952215,232.043833650446L346.12588102198964,232.0155055522539L350.8027580487578,236.34688742507137L355.4796350755259,232.17017217636874L360.1565121022941,237.98633414506568L364.8333891290622,236.64996753828606L369.5102661558304,232.84322580937314L374.18714318259845,231.1345453358103L378.86402020936663,231.1322990017485L383.54089723613475,234.48108745050317L388.2177742629029,235.39005035080086L392.894651289671,238.09739835233378L397.5715283164392,236.957780833132L402.24840534320725,238.01555906764148L406.92528236997543,236.30721902984288L411.60215939674356,234.55188797065972L416.2790364235117,232.98104998732802L420.9559134502798,233.65002901883355L425.632790477048,236.70702768837089L430.30966750381606,240.076774364348L434.98654453058424,236.51818517943946L439.66342155735236,235.5293721868465L444.3402985841205,236.59116700909553L449.0171756108886,238.57710332029023L453.6940526376568,237.6634947458079L458.370929664425,235.9018250378074L463.04780669119305,237.67454899424234L467.7246837179612,234.3016511140083L472.4015607447293,237.698076967872L477.0784377714975,239.9167780681629L481.7553147982656,239.796846616801L486.4321918250338,240.92692520449845L491.10906885180185,240.2277867497003L495.78594587857003,233.26431184997523L500.46282290533816,236.3082072905905L505.1396999321063,237.35027440003927L509.8165769588744,237.5622130264733L514.4934539856425,238.65806477565152L519.1703310124107,236.13995545677773L523.8472080391789,238.10232460587858L528.5240850659469,235.82862358681274L533.2009620927151,238.0083350614442L537.8778391194832,240.0252913315226L542.5547161462514,239.00201345622438L547.2315931730195,239.87108772030732L551.9084701997876,240.97577380349964L556.5853472265558,239.72916737920798L561.2622242533239,242.86789567810052L565.939101280092,242.61382485864436L570.6159783068601,243.1417255846818L575.2928553336283,239.55808336519203L579.9697323603965,236.85193920585422L584.6466093871645,240.5090624743618L589.3234864139328,237.2637255966986L594.0003634407009,238.11820659094664L598.677240467469,236.37281031345495L603.3541174942371,237.91218055871587L608.0309945210053,238.91742799646082L612.7078715477734,241.40338547048594L617.3847485745415,241.66113213453417L622.0616256013097,240.95169041716284L626.7385026280778,240.88424262836347L631.415379654846,239.18034546992828L636.0922566816141,237.5735400354612L640.7691337083822,234.56823650222057L645.4460107351504,238.84214468484024L650.1228877619185,237.01359285522386L654.7997647886866,239.87251172593503L659.4766418154547,241.4124182838372L664.1535188422229,241.97483960103503L668.8303958689911,241.40073595049785L673.5072728957591,239.79642574743943L678.1841499225274,236.150507582873L682.8610269492954,238.20329961183927L687.5379039760635,238.62739150587063L692.2147810028317,238.24682659552886L696.8916580295999,236.1380470999607L701.568535056368,238.6700204997737L706.2454120831361,240.66795270579763L710.9222891099042,244.36861949078636L715.5991661366724,243.4350357061494L720.2760431634406,243.48028442856761L724.9529201902087,240.8101403295769L729.6297972169767,242.72478279822067L734.306674243745,238.8658860997098L738.9835512705131,240.73280824682647L743.6604282972813,241.30709787341456L748.3373053240493,239.91158834506905L753.0141823508175,239.72423595406042L757.6910593775856,242.3703846050501L762.3679364043538,242.81874607877836L767.0448134311218,241.06485225654063L771.72169045789,240.69138624807886L776.3985674846582,241.34538760353638L781.0754445114263,241.10166337000163L785.7523215381943,238.70192448087462L790.4291985649626,240.90553594987495L795.1060755917307,240.84305261136726L799.7829526184989,239.927200547741L804.459829645267,237.42123222139975L809.1367066720351,242.15005283978977L813.8135836988033,238.45299736890354L818.4904607255714,240.04210928573016L823.1673377523394,241.2208469120893L827.8442147791076,241.60457435036702L832.5210918058758,242.38600476159402L837.1979688326439,240.50737486856312L841.874845859412,242.3453600451989L846.5517228861802,236.53566991409664L851.2285999129483,242.00141014980295L855.9054769397166,239.7633466404922L860.5823539664847,241.20454599788448L865.2592309932527,242.34384657648803L869.9361080200209,240.7542784512426L874.612985046789,242.4961131924274L879.2898620735572,241.9905271214168L883.9667391003252,240.78769817113303L888.6436161270934,240.98931847210775L893.3204931538615,241.44511033683943L897.9973701806298,241.6101442563944L902.6742472073978,241.38569720357003L907.3511242341659,240.58139071414564L912.0280012609342,239.50385736059624L916.7048782877023,239.48762966325666L921.3817553144703,236.94467143869284L926.0586323412385,235.55057655374833L930.7355093680067,239.6007085801858L935.4123863947748,239.91477346543496L940.0892634215429,235.97981492019431L944.766140448311,241.25099215373217L949.4430174750792,243.94638259612023L954.1198945018474,240.6601613238253L958.7967715286154,241.2332831133343L963.4736485553835,240.8724381758841L968.1505255821518,241.8107304217011L972.8274026089199,242.17969947436623L977.5042796356881,241.808960299425L982.1811566624561,238.99346396313152L986.8580336892243,238.04366239398226L991.5349107159924,237.7284601216269L996.2117877427606,238.901071087556L1000.8886647695286,239.61426218552137L1005.5655417962968,239.34058734838098L1010.242418823065,241.79173501705702L1014.9192958498331,243.76327754515424L1019.5961728766011,246.05844042305995L1024.2730499033694,244.4565237798276L1028.9499269301375,243.87208972395095L1033.6268039569056,243.57300329675365L1038.3036809836738,245.2837935395058L1042.9805580104419,241.00638555100403L1047.65743503721,241.1212530727259L1052.3343120639781,240.36957974885408L1057.0111890907463,240.83511031254417L1061.6880661175144,241.73518065430156L1066.3649431442825,237.44400852787126L1071.0418201710509,239.33379998947373L1075.7186971978188,242.30729541188586L1080.3955742245869,242.87170510678342L1085.0724512513552,244.37500074787667L1089.7493282781234,241.36792157889442L1094.4262053048913,239.04426784893366L1099.1030823316596,242.0289746013869L1103.7799593584277,243.9902936537897L1108.4568363851959,244.65474451812406L1113.133713411964,244.16802139968138L1117.810590438732,241.14874561360244L1122.4874674655002,240.25193824407748L1127.1643444922684,242.06856976081502L1131.8412215190365,244.50902591566L1136.5180985458046,244.3893646498039L1141.1949755725727,242.62125661572617L1145.8718525993409,245.54375903226963L1150.5487296261092,248.25825302710246L1155.225606652877,243.89514898478413L1159.9024836796452,243.00401061031639L1164.5793607064134,241.65840191737155L1169.2562377331817,238.03703511298593L1173.9331147599496,239.92919423474683L1178.6099917867177,240.05221962738452L1183.286868813486,242.98665128015526L1187.9637458402542,238.68832623447935L1192.640622867022,238.6892976961481L1197.3174998937905,239.5658621476396L1201.9943769205586,241.4887036656064L1206.6712539473267,241.89625457576471L1211.3481309740948,241.06800993878673L1216.025008000863,242.2800486633082L1220.701885027631,244.86772348434286L1225.3787620543992,245.080669933789L1230.0556390811673,242.43387591906577L1234.7325161079355,241.5142954456369" style="fill: none;" fill="none"></path></g></g></g></g><g opacity="0.2"><g><g><g><path stroke="rgb(51, 187, 238)" stroke-width="2px" d="M42.128874282060806,104.06289326337249L46.805751308828945,235.96928208666688L51.48262833559708,249.29210343156575L56.15950536236522,263.82999533274096L60.836382389133355,266.4680289003027L65.51325941590149,272.52865753493506L70.19013644266963,277.95404898747853L74.86701346943777,275.8294299145052L79.5438904962059,276.53929721145903L84.22076752297404,279.8567484123205L88.89764454974217,280.70350701485756L93.5745215765103,284.69009778575423L98.25139860327845,280.5696839074273L102.92827563004657,288.22618414064067L107.60515265681472,289.9118185598597L112.28202968358286,289.6844594690498L116.958906710351,290.40161674072743L121.63578373711913,292.9330564580966L126.31266076388727,294.9075661394489L130.9895377906554,294.6192276117183L135.66641481742354,298.5351376716388L140.34329184419167,301.11622131578105L145.0201688709598,304.282657886402L149.69704589772795,302.3345363113577L154.37392292449607,304.7303104002125L159.05079995126422,302.8348448733657L163.72767697803235,306.6066617735526L168.4045540048005,306.96765170872317L173.08143103156863,308.09385667201997L177.75830805833678,306.6700284769213L182.4351850851049,309.0147647317481L187.11206211187303,311.49897582715636L191.78893913864118,312.38037382607354L196.4658161654093,314.70395713775935L201.14269319217743,313.31511681585437L205.8195702189456,313.54982195811675L210.4964472457137,314.8901478987827L215.17332427248184,315.82953324059923L219.85020129925,317.93875524607887L224.5270783260181,314.6584188286191L229.20395535278624,318.75256476505655L233.8808323795544,318.0089793322647L238.55770940632252,317.46118980301696L243.23458643309064,320.24313628368446L247.9114634598588,318.6007169948476L252.58834048662692,317.3801348972415L257.26521751339504,321.4566487080007L261.94209454016317,318.9483085973526L266.61897156693135,323.1103193918922L271.2958485936995,321.27625788291147L275.97272562046766,322.1155342476551L280.6496026472358,322.87520569060683L285.3264796740039,322.74429857306603L290.00335670077203,321.1562376616891L294.68023372754016,322.37023875464064L299.3571107543083,323.3618315308255L304.03398778107646,323.3470993731144L308.7108648078446,323.73182178094356L313.3877418346127,324.3919410086281L318.06461886138084,323.6788332778548L322.74149588814896,326.1289897770532L327.4183729149171,325.0771185230558L332.09524994168527,324.5869678598937L336.7721269684534,326.2475279704472L341.4490039952215,326.747367891223L346.12588102198964,326.60764871632375L350.8027580487578,323.4882124552685L355.4796350755259,326.44883140984035L360.1565121022941,325.51225791541725L364.8333891290622,327.84548642442996L369.5102661558304,328.7669512459639L374.18714318259845,326.94063233101684L378.86402020936663,329.4052205768801L383.54089723613475,327.14638986485664L388.2177742629029,325.17589367508305L392.894651289671,328.80679776714663L397.5715283164392,327.3424180862765" style="fill: none;" fill="none"></path></g><g><path stroke="rgb(204, 51, 17)" stroke-width="2px" d="M42.128874282060806,164.90545490035967L46.805751308828945,225.51210975089927L51.48262833559708,243.01395316652014L56.15950536236522,258.8632474328224L60.836382389133355,267.89550208276336L65.51325941590149,276.07356395814116L70.19013644266963,278.69185050625873L74.86701346943777,281.71396159927025L79.5438904962059,286.0606530886403L84.22076752297404,292.16954776471334L88.89764454974217,289.7008018299691L93.5745215765103,291.2021120421325L98.25139860327845,294.93449098015964L102.92827563004657,298.40891696642046L107.60515265681472,299.0069192006891L112.28202968358286,301.8829103607746L116.958906710351,301.4788374760823L121.63578373711913,302.76967570371914L126.31266076388727,306.0308338799824L130.9895377906554,305.6746024557854L135.66641481742354,304.98398549867926L140.34329184419167,310.6279560285191L145.0201688709598,306.2645536740129L149.69704589772795,310.0794775566052L154.37392292449607,311.5304949541354L159.05079995126422,311.1014719306768L163.72767697803235,313.5333193779727L168.4045540048005,311.1519089426122L173.08143103156863,312.03728838926315L177.75830805833678,313.8987674130705L182.4351850851049,314.65776593527846L187.11206211187303,315.8811198254719L191.78893913864118,314.15405672022615L196.4658161654093,315.6655849134448L201.14269319217743,317.70061340144673L205.8195702189456,315.73989458986046L210.4964472457137,316.86903156496925L215.17332427248184,318.039280793136L219.85020129925,317.1797687403128L224.5270783260181,317.88973216880146L229.20395535278624,318.6694470367631L233.8808323795544,318.4633209987065L238.55770940632252,319.3168488634871L243.23458643309064,318.53688565572725L247.9114634598588,317.651121682937L252.58834048662692,318.56006136658004L257.26521751339504,319.9630690734291L261.94209454016317,321.8108173096797L266.61897156693135,320.47325114515917L271.2958485936995,322.56328689848107L275.97272562046766,320.3354425845145L280.6496026472358,321.3431173653786L285.3264796740039,322.3750012710948L290.00335670077203,321.40682052911916L294.68023372754016,320.2052284151206L299.3571107543083,319.5291112978497L304.03398778107646,322.2732420360075L308.7108648078446,322.3446156951306L313.3877418346127,321.1701486958736L318.06461886138084,322.0003967073054L322.74149588814896,322.90497442255594L327.4183729149171,322.84178396033445L332.09524994168527,323.4453618236226L336.7721269684534,321.73349551183964L341.4490039952215,323.76501119334006L346.12588102198964,324.7628725466913L350.8027580487578,324.19016091704157L355.4796350755259,321.87755262224766L360.1565121022941,321.1138676877173L364.8333891290622,324.9229395631274L369.5102661558304,325.47410170705507L374.18714318259845,324.13562629843443L378.86402020936663,324.0377123247399L383.54089723613475,325.0459879276966L388.2177742629029,323.78441774693175L392.894651289671,325.8728953682935L397.5715283164392,324.51953559369827L402.24840534320725,325.08216943411446L406.92528236997543,324.98302978335096L411.60215939674356,326.4286437875282L416.2790364235117,324.90482677977514L420.9559134502798,327.21832028578547L425.632790477048,326.91463676180933L430.30966750381606,326.4100663684243L434.98654453058424,325.3617239428508L439.66342155735236,328.56211897814677L444.3402985841205,325.6850543492557L449.0171756108886,324.77843383889024L453.6940526376568,325.38433087545593L458.370929664425,325.35831127336473L463.04780669119305,327.9276107935304L467.7246837179612,327.7386682673228L472.4015607447293,326.54281200156845L477.0784377714975,328.9898442258853L481.7553147982656,329.01732182292125L486.4321918250338,327.5773395244922L491.10906885180185,326.9160026306999L495.78594587857003,326.16742236357805L500.46282290533816,329.0482120894433L505.1396999321063,329.00839360662485L509.8165769588744,327.40758725592303L514.4934539856425,327.50552125702063L519.1703310124107,327.7056831344378L523.8472080391789,328.81771270182935L528.5240850659469,328.20324393674224L533.2009620927151,327.63048824680567L537.8778391194832,328.81456439406395L542.5547161462514,328.8341031285161L547.2315931730195,329.3710297943292L551.9084701997876,328.89088882723024L556.5853472265558,329.9863877761134L561.2622242533239,330.6749619381047L565.939101280092,329.97524452903554L570.6159783068601,328.04249198312056L575.2928553336283,329.3944979052671L579.9697323603965,330.6324157229856L584.6466093871645,329.29519002431766L589.3234864139328,329.38674730027225L594.0003634407009,330.47100286506213L598.677240467469,330.11340957745523L603.3541174942371,329.1195256663571L608.0309945210053,331.2624858350779L612.7078715477734,330.13261585701605L617.3847485745415,329.87957762996746L622.0616256013097,329.13769853191866L626.7385026280778,329.48756925289507L631.415379654846,330.6935313462473L636.0922566816141,331.93283906574015L640.7691337083822,330.769274984724L645.4460107351504,333.1327729107631L650.1228877619185,330.2366982708615L654.7997647886866,333.00414491169374L659.4766418154547,330.80926570320906L664.1535188422229,332.07022304543943L668.8303958689911,330.52902625728706L673.5072728957591,331.3177374347155L678.1841499225274,331.5557470984873L682.8610269492954,332.4568640784844L687.5379039760635,331.10001553027126L692.2147810028317,332.9003629088946L696.8916580295999,334.3206702865305L701.568535056368,332.06509603024904L706.2454120831361,332.61874557764014L710.9222891099042,330.9406134236177L715.5991661366724,332.86434963266277L720.2760431634406,333.08599290263146L724.9529201902087,332.33542191164275L729.6297972169767,331.7595659797082L734.306674243745,331.99412291918776L738.9835512705131,332.0520621963197L743.6604282972813,332.70372985990144L748.3373053240493,333.514126709393L753.0141823508175,331.9117942705759L757.6910593775856,332.1974491262927L762.3679364043538,334.0417486437317L767.0448134311218,331.8235695544951L771.72169045789,332.7079356145498L776.3985674846582,332.4956211089392L781.0754445114263,333.238181138693L785.7523215381943,332.9313132576259L790.4291985649626,333.4867893041786L795.1060755917307,333.0661617680943L799.7829526184989,334.0169547187094L804.459829645267,333.14641958322693L809.1367066720351,332.73939465931954L813.8135836988033,334.53153080267697L818.4904607255714,333.50640013728184L823.1673377523394,333.1266365144571L827.8442147791076,334.64499405212854L832.5210918058758,334.2119655480525L837.1979688326439,334.0422933890957L841.874845859412,333.8532106710665L846.5517228861802,335.5023431454183L851.2285999129483,334.07135315097554L855.9054769397166,334.32205217734355L860.5823539664847,334.73699193095104L865.2592309932527,333.5346427811158L869.9361080200209,333.4814980642829L874.612985046789,335.6363464994764L879.2898620735572,334.28487330625205L883.9667391003252,335.01124318334985L888.6436161270934,334.1542545833157L893.3204931538615,334.0476607331231L897.9973701806298,333.78631914475443L902.6742472073978,333.86167825709185L907.3511242341659,334.9938834303537L912.0280012609342,334.32508432617095L916.7048782877023,334.1283711675655L921.3817553144703,335.7170729558413L926.0586323412385,335.03572468088396L930.7355093680067,333.59045915352044L935.4123863947748,335.2741589256012L940.0892634215429,334.73643516914524L944.766140448311,334.8768953579587L949.4430174750792,333.82352204872967L954.1198945018474,334.7816169905105L958.7967715286154,334.96034554114345L963.4736485553835,334.6201680832614L968.1505255821518,334.7097947175583L972.8274026089199,337.38277209802703L977.5042796356881,334.5753107058261L982.1811566624561,333.9189606354026L986.8580336892243,336.94059107073997L991.5349107159924,336.1079918421857L996.2117877427606,334.44666668483427L1000.8886647695286,334.28113218735524L1005.5655417962968,335.68738433350444L1010.242418823065,334.8090585382209L1014.9192958498331,334.820806612872L1019.5961728766011,336.0209207045227L1024.2730499033694,336.41872501204864L1028.9499269301375,335.6938051189343L1033.6268039569056,336.35931572353L1038.3036809836738,335.34698256870774L1042.9805580104419,336.5561850958796L1047.65743503721,335.1819247234223L1052.3343120639781,335.7169848352677L1057.0111890907463,336.2373087839213L1061.6880661175144,335.98968196118693L1066.3649431442825,336.06961933787017L1071.0418201710509,335.78788184219724L1075.7186971978188,337.33454210591185L1080.3955742245869,336.1628188608779L1085.0724512513552,336.232201796134L1089.7493282781234,335.7672936718233L1094.4262053048913,334.77049777631635L1099.1030823316596,335.5881445457255L1103.7799593584277,336.44456436751204L1108.4568363851959,337.1757127829866L1113.133713411964,335.7544681228861L1117.810590438732,336.05934928556695L1122.4874674655002,335.8226694413601L1127.1643444922684,335.53943790141693L1131.8412215190365,335.4922853835878L1136.5180985458046,335.8981326961936L1141.1949755725727,336.144105255433L1145.8718525993409,337.4239604552167L1150.5487296261092,337.53163578517604L1155.225606652877,336.0503730035031L1159.9024836796452,336.3336806475781L1164.5793607064134,334.11239731086295L1169.2562377331817,336.79371410197734L1173.9331147599496,337.20376316375086L1178.6099917867177,336.6804831704015L1183.286868813486,336.757412431141L1187.9637458402542,336.6475461032839L1192.640622867022,338.0540986604794L1197.3174998937905,336.7456603510093L1201.9943769205586,335.83105691777314L1206.6712539473267,336.5041458916972L1211.3481309740948,337.4711530278519L1216.025008000863,336.4820877099367L1220.701885027631,337.4541016968633L1225.3787620543992,338.08171644933697L1230.0556390811673,337.468597531218L1234.7325161079355,335.62501900029014" style="fill: none;" fill="none"></path></g><g><path stroke="rgb(0, 119, 187)" stroke-width="2px" d="M42.128874282060806,-4.275584066990321L46.805751308828945,201.90103519883357L51.48262833559708,222.60550870793486L56.15950536236522,215.6271283323011L60.836382389133355,225.17129141611838L65.51325941590149,225.87346819028662L70.19013644266963,224.71340089384955L74.86701346943777,240.80993745674695L79.5438904962059,233.47676762993854L84.22076752297404,233.7944182648278L88.89764454974217,235.5302493671452L93.5745215765103,233.60755458306073L98.25139860327845,242.4534662637149L102.92827563004657,227.98978790742046L107.60515265681472,226.20146898709154L112.28202968358286,239.07615716050574L116.958906710351,237.989742641663" style="fill: none;" fill="none"></path></g><g><path stroke="rgb(255, 112, 67)" stroke-width="2px" d="M42.128874282060806,169.42559171142827L46.805751308828945,195.18378011561512L51.48262833559708,199.68044481026521L56.15950536236522,201.30208767113922L60.836382389133355,201.70553570085517L65.51325941590149,208.57232338648566L70.19013644266963,206.74209111697533L74.86701346943777,210.24570103501517L79.5438904962059,212.03459674455306L84.22076752297404,212.9672809172965L88.89764454974217,215.46481023575802L93.5745215765103,214.1810536978529L98.25139860327845,220.00885175515177L102.92827563004657,218.5758029436716L107.60515265681472,218.53906467544803L112.28202968358286,226.42585601128326L116.958906710351,222.68691609600472L121.63578373711913,223.01738426887005L126.31266076388727,224.27395160434364L130.9895377906554,223.85693300629566L135.66641481742354,227.21323736914673L140.34329184419167,222.17945374561384L145.0201688709598,227.89099673347076L149.69704589772795,228.83726749646874L154.37392292449607,222.86948590254985L159.05079995126422,227.0845332659456L163.72767697803235,223.71219095870208L168.4045540048005,225.0792454715285L173.08143103156863,228.07164390931945L177.75830805833678,230.37085387144788L182.4351850851049,227.49200279820144L187.11206211187303,228.64993917895004L191.78893913864118,226.86057883366053L196.4658161654093,231.3383536817186L201.14269319217743,231.24968836276983L205.8195702189456,239.17265719954227L210.4964472457137,226.88962657909858L215.17332427248184,232.18213220667627L219.85020129925,231.42879743406147L224.5270783260181,227.8290079154345L229.20395535278624,236.65327397883175L233.8808323795544,238.09316415120657L238.55770940632252,229.9435331772517L243.23458643309064,238.20262592552135L247.9114634598588,231.68742330657147L252.58834048662692,237.53826088838218L257.26521751339504,226.79003430902534L261.94209454016317,235.89194426690443L266.61897156693135,236.82502898770963L271.2958485936995,232.79183044434794L275.97272562046766,233.53519958118642L280.6496026472358,237.95457452184147L285.3264796740039,233.32502400222555L290.00335670077203,236.39761216197863L294.68023372754016,235.0534529763618L299.3571107543083,242.30531154663524L304.03398778107646,238.21294404359196L308.7108648078446,238.38745482313468L313.3877418346127,232.56436721104197L318.06461886138084,223.22685488324223L322.74149588814896,233.01679425774856L327.4183729149171,234.7699771021009L332.09524994168527,234.80982362328365L336.7721269684534,228.12281792968852L341.4490039952215,233.07865490040507L346.12588102198964,231.98717745406185L350.8027580487578,240.67826929788882L355.4796350755259,227.99345692766613L360.1565121022941,243.80249611376263L364.8333891290622,235.3136009315065L369.5102661558304,229.03648408046016L374.18714318259845,229.42586486224747L378.86402020936663,231.13005266768667L383.54089723613475,237.82987589925781L388.2177742629029,236.29901325109856L392.894651289671,240.80474635386665L397.5715283164392,235.8181633139303L402.24840534320725,239.07333730215097L406.92528236997543,234.59887899204423L411.60215939674356,232.79655691147656L416.2790364235117,231.41021200399632L420.9559134502798,234.3190080503391L425.632790477048,239.76402635790825L430.30966750381606,243.4465210403252L434.98654453058424,232.95959599453082L439.66342155735236,234.54055919425363L444.3402985841205,237.65296183134458L449.0171756108886,240.5630396314849L453.6940526376568,236.74988617132558L458.370929664425,234.140155329807L463.04780669119305,239.44727295067727L467.7246837179612,230.92875323377416L472.4015607447293,241.09450282173577L477.0784377714975,242.13547916845368L481.7553147982656,239.67691516543914L486.4321918250338,242.05700379219587L491.10906885180185,239.52864829490218L495.78594587857003,226.30083695025021L500.46282290533816,239.35210273120575L505.1396999321063,238.39234150948806L509.8165769588744,237.77415165290728L514.4934539856425,239.75391652482975L519.1703310124107,233.62184613790396L523.8472080391789,240.06469375497946L528.5240850659469,233.55492256774693L533.2009620927151,240.18804653607566L537.8778391194832,242.04224760160105L542.5547161462514,237.97873558092618L547.2315931730195,240.7401619843903L551.9084701997876,242.0804598866919L556.5853472265558,238.48256095491632L561.2622242533239,246.0066239769931L565.939101280092,242.35975403918812L570.6159783068601,243.66962631071934L575.2928553336283,235.97444114570223L579.9697323603965,234.1457950465164L584.6466093871645,244.16618574286937L589.3234864139328,234.0183887190353L594.0003634407009,238.97268758519476L598.677240467469,234.62741403596326L603.3541174942371,239.45155080397674L608.0309945210053,239.92267543420576L612.7078715477734,243.88934294451104L617.3847485745415,241.9188787985824L622.0616256013097,240.24224869979147L626.7385026280778,240.81679483956407L631.415379654846,237.47644831149307L636.0922566816141,235.9667346009942L640.7691337083822,231.56293296897994L645.4460107351504,243.11605286745993L650.1228877619185,235.18504102560755L654.7997647886866,242.7314305966462L659.4766418154547,242.95232484173943L664.1535188422229,242.53726091823273L668.8303958689911,240.82663229996064L673.5072728957591,238.192115544381L678.1841499225274,232.5045894183066L682.8610269492954,240.25609164080552L687.5379039760635,239.05148339990197L692.2147810028317,237.86626168518708L696.8916580295999,234.02926760439243L701.568535056368,241.2019938995867L706.2454120831361,242.6658849118216L710.9222891099042,248.06928627577508L715.5991661366724,242.50145192151243L720.2760431634406,243.52553315098578L724.9529201902087,238.1399962305863L729.6297972169767,244.63942526686444L734.306674243745,235.00698940119895L738.9835512705131,242.59973039394313L743.6604282972813,241.8813875000027L748.3373053240493,238.51607881672354L753.0141823508175,239.53688356305176L757.6910593775856,245.0165332560398L762.3679364043538,243.26710755250662L767.0448134311218,239.3109584343029L771.72169045789,240.31792023961705L776.3985674846582,241.9993889589939L781.0754445114263,240.85793913646694L785.7523215381943,236.3021855917476L790.4291985649626,243.10914741887535L795.1060755917307,240.7805692728595L799.7829526184989,239.01134848411473L804.459829645267,234.91526389505842L809.1367066720351,246.8788734581799L813.8135836988033,234.75594189801723L818.4904607255714,241.63122120255682L823.1673377523394,242.39958453844844L827.8442147791076,241.98830178864472L832.5210918058758,243.16743517282106L837.1979688326439,238.62874497553221L841.874845859412,244.18334522183468L846.5517228861802,230.72597978299444L851.2285999129483,247.46715038550923L855.9054769397166,237.5252831311815L860.5823539664847,242.64574535527686L865.2592309932527,243.4831471550915L869.9361080200209,239.16471032599716L874.612985046789,244.2379479336123L879.2898620735572,241.48494105040615L883.9667391003252,239.58486922084927L888.6436161270934,241.19093877308248L893.3204931538615,241.90090220157109L897.9973701806298,241.77517817594938L902.6742472073978,241.16125015074562L907.3511242341659,239.7770842247213L912.0280012609342,238.42632400704682L916.7048782877023,239.47140196591707L921.3817553144703,234.40171321412902L926.0586323412385,234.15648166880388L930.7355093680067,243.65084060662326L935.4123863947748,240.22883835068416L940.0892634215429,232.0448563749537L944.766140448311,246.52216938727005L949.4430174750792,246.64177303850826L954.1198945018474,237.37394005153033L958.7967715286154,241.8064049028433L963.4736485553835,240.5115932384339L968.1505255821518,242.74902266751815L972.8274026089199,242.5486685270314L977.5042796356881,241.43822112448376L982.1811566624561,236.17796762683807L986.8580336892243,237.093860824833L991.5349107159924,237.4132578492716L996.2117877427606,240.0736820534851L1000.8886647695286,240.3274532834867L1005.5655417962968,239.06691251124056L1010.242418823065,244.24288268573306L1014.9192958498331,245.73482007325157L1019.5961728766011,248.35360330096566L1024.2730499033694,242.8546071365952L1028.9499269301375,243.28765566807434L1033.6268039569056,243.27391686955636L1038.3036809836738,246.99458378225793L1042.9805580104419,236.72897756250228L1047.65743503721,241.23612059444775L1052.3343120639781,239.61790642498232L1057.0111890907463,241.30064087623424L1061.6880661175144,242.635250996059L1066.3649431442825,233.15283640144094L1071.0418201710509,241.2235914510762L1075.7186971978188,245.280790834298L1080.3955742245869,243.436114801681L1085.0724512513552,245.87829638897L1089.7493282781234,238.3608424099121L1094.4262053048913,236.72061411897297L1099.1030823316596,245.0136813538401L1103.7799593584277,245.95161270619252L1108.4568363851959,245.31919538245845L1113.133713411964,243.6812982812387L1117.810590438732,238.1294698275235L1122.4874674655002,239.35513087455257L1127.1643444922684,243.88520127755254L1131.8412215190365,246.94948207050498L1136.5180985458046,244.26970338394776L1141.1949755725727,240.85314858164838L1145.8718525993409,248.46626144881316L1150.5487296261092,250.97274702193536L1155.225606652877,239.5320449424658L1159.9024836796452,242.11287223584858L1164.5793607064134,240.3127932244267L1169.2562377331817,234.41566830860032L1173.9331147599496,241.82135335650779L1178.6099917867177,240.17524502002212L1183.286868813486,245.92108293292603L1187.9637458402542,234.39000118880344L1192.640622867022,238.69026915781686L1197.3174998937905,240.44242659913112L1201.9943769205586,243.41154518357328L1206.6712539473267,242.30380548592305L1211.3481309740948,240.23976530180866L1216.025008000863,243.49208738782977L1220.701885027631,247.45539830537749L1225.3787620543992,245.2936163832352L1230.0556390811673,239.78708190434253L1234.7325161079355,240.594714972208" style="fill: none;" fill="none"></path></g></g></g></g></g></g><g transform="translate(70, 377)" clip-path="url(#clip_1)"><clipPath id="clip_1"><rect width="1371" height="23"></rect></clipPath><g><g><line x1="42.128874282060806" y1="0" x2="42.128874282060806" y2="5" style="visibility: inherit;" fill="rgb(0, 0, 0)" stroke="rgb(204, 204, 204)" stroke-width="1px"></line><line x1="135.66641481742354" y1="0" x2="135.66641481742354" y2="5" style="visibility: inherit;" fill="rgb(0, 0, 0)" stroke="rgb(204, 204, 204)" stroke-width="1px"></line><line x1="229.20395535278624" y1="0" x2="229.20395535278624" y2="5" style="visibility: inherit;" fill="rgb(0, 0, 0)" stroke="rgb(204, 204, 204)" stroke-width="1px"></line><line x1="322.74149588814896" y1="0" x2="322.74149588814896" y2="5" style="visibility: inherit;" fill="rgb(0, 0, 0)" stroke="rgb(204, 204, 204)" stroke-width="1px"></line><line x1="416.2790364235117" y1="0" x2="416.2790364235117" y2="5" style="visibility: inherit;" fill="rgb(0, 0, 0)" stroke="rgb(204, 204, 204)" stroke-width="1px"></line><line x1="509.8165769588744" y1="0" x2="509.8165769588744" y2="5" style="visibility: inherit;" fill="rgb(0, 0, 0)" stroke="rgb(204, 204, 204)" stroke-width="1px"></line><line x1="603.3541174942371" y1="0" x2="603.3541174942371" y2="5" style="visibility: inherit;" fill="rgb(0, 0, 0)" stroke="rgb(204, 204, 204)" stroke-width="1px"></line><line x1="696.8916580295999" y1="0" x2="696.8916580295999" y2="5" style="visibility: inherit;" fill="rgb(0, 0, 0)" stroke="rgb(204, 204, 204)" stroke-width="1px"></line><line x1="790.4291985649626" y1="0" x2="790.4291985649626" y2="5" style="visibility: inherit;" fill="rgb(0, 0, 0)" stroke="rgb(204, 204, 204)" stroke-width="1px"></line><line x1="883.9667391003252" y1="0" x2="883.9667391003252" y2="5" style="visibility: inherit;" fill="rgb(0, 0, 0)" stroke="rgb(204, 204, 204)" stroke-width="1px"></line><line x1="977.5042796356881" y1="0" x2="977.5042796356881" y2="5" style="visibility: inherit;" fill="rgb(0, 0, 0)" stroke="rgb(204, 204, 204)" stroke-width="1px"></line><line x1="1071.0418201710509" y1="0" x2="1071.0418201710509" y2="5" style="visibility: inherit;" fill="rgb(0, 0, 0)" stroke="rgb(204, 204, 204)" stroke-width="1px"></line><line x1="1164.5793607064134" y1="0" x2="1164.5793607064134" y2="5" style="visibility: inherit;" fill="rgb(0, 0, 0)" stroke="rgb(204, 204, 204)" stroke-width="1px"></line><line x1="1258.116901241776" y1="0" x2="1258.116901241776" y2="5" style="visibility: inherit;" fill="rgb(0, 0, 0)" stroke="rgb(204, 204, 204)" stroke-width="1px"></line><line x1="1351.6544417771388" y1="0" x2="1351.6544417771388" y2="5" style="visibility: inherit;" fill="rgb(0, 0, 0)" stroke="rgb(204, 204, 204)" stroke-width="1px"></line></g><g transform="translate(0, 8)"><text x="42.128874282060806" y="0" dx="0em" dy="0.95em" style="text-anchor: middle; visibility: inherit; font-family: Roboto, sans-serif; font-size: 12px; font-weight: 200;" fill="rgb(33, 33, 33)" stroke="none" stroke-width="1px">0</text><text x="135.66641481742354" y="0" dx="0em" dy="0.95em" style="text-anchor: middle; visibility: inherit; font-family: Roboto, sans-serif; font-size: 12px; font-weight: 200;" fill="rgb(33, 33, 33)" stroke="none" stroke-width="1px">20</text><text x="229.20395535278624" y="0" dx="0em" dy="0.95em" style="text-anchor: middle; visibility: inherit; font-family: Roboto, sans-serif; font-size: 12px; font-weight: 200;" fill="rgb(33, 33, 33)" stroke="none" stroke-width="1px">40</text><text x="322.74149588814896" y="0" dx="0em" dy="0.95em" style="text-anchor: middle; visibility: inherit; font-family: Roboto, sans-serif; font-size: 12px; font-weight: 200;" fill="rgb(33, 33, 33)" stroke="none" stroke-width="1px">60</text><text x="416.2790364235117" y="0" dx="0em" dy="0.95em" style="text-anchor: middle; visibility: inherit; font-family: Roboto, sans-serif; font-size: 12px; font-weight: 200;" fill="rgb(33, 33, 33)" stroke="none" stroke-width="1px">80</text><text x="509.8165769588744" y="0" dx="0em" dy="0.95em" style="text-anchor: middle; visibility: inherit; font-family: Roboto, sans-serif; font-size: 12px; font-weight: 200;" fill="rgb(33, 33, 33)" stroke="none" stroke-width="1px">100</text><text x="603.3541174942371" y="0" dx="0em" dy="0.95em" style="text-anchor: middle; visibility: inherit; font-family: Roboto, sans-serif; font-size: 12px; font-weight: 200;" fill="rgb(33, 33, 33)" stroke="none" stroke-width="1px">120</text><text x="696.8916580295999" y="0" dx="0em" dy="0.95em" style="text-anchor: middle; visibility: inherit; font-family: Roboto, sans-serif; font-size: 12px; font-weight: 200;" fill="rgb(33, 33, 33)" stroke="none" stroke-width="1px">140</text><text x="790.4291985649626" y="0" dx="0em" dy="0.95em" style="text-anchor: middle; visibility: inherit; font-family: Roboto, sans-serif; font-size: 12px; font-weight: 200;" fill="rgb(33, 33, 33)" stroke="none" stroke-width="1px">160</text><text x="883.9667391003252" y="0" dx="0em" dy="0.95em" style="text-anchor: middle; visibility: inherit; font-family: Roboto, sans-serif; font-size: 12px; font-weight: 200;" fill="rgb(33, 33, 33)" stroke="none" stroke-width="1px">180</text><text x="977.5042796356881" y="0" dx="0em" dy="0.95em" style="text-anchor: middle; visibility: inherit; font-family: Roboto, sans-serif; font-size: 12px; font-weight: 200;" fill="rgb(33, 33, 33)" stroke="none" stroke-width="1px">200</text><text x="1071.0418201710509" y="0" dx="0em" dy="0.95em" style="text-anchor: middle; visibility: inherit; font-family: Roboto, sans-serif; font-size: 12px; font-weight: 200;" fill="rgb(33, 33, 33)" stroke="none" stroke-width="1px">220</text><text x="1164.5793607064134" y="0" dx="0em" dy="0.95em" style="text-anchor: middle; visibility: inherit; font-family: Roboto, sans-serif; font-size: 12px; font-weight: 200;" fill="rgb(33, 33, 33)" stroke="none" stroke-width="1px">240</text><text x="1258.116901241776" y="0" dx="0em" dy="0.95em" style="text-anchor: middle; visibility: inherit; font-family: Roboto, sans-serif; font-size: 12px; font-weight: 200;" fill="rgb(33, 33, 33)" stroke="none" stroke-width="1px">260</text><text x="1351.6544417771388" y="0" dx="0em" dy="0.95em" style="text-anchor: middle; visibility: inherit; font-family: Roboto, sans-serif; font-size: 12px; font-weight: 200;" fill="rgb(33, 33, 33)" stroke="none" stroke-width="1px">280</text></g><line x1="0" y1="0" x2="1371" y2="0" fill="rgb(0, 0, 0)" stroke="rgb(204, 204, 204)" stroke-width="1px"></line></g></g></g></g></svg>